<?xml version="1.0" encoding="UTF-8" standalone="no"?>
<!-- Created with Inkscape (http://www.inkscape.org/) -->

<svg
   version="1.1"
   id="svg2"
   width="155.57915"
   height="32.15609"
   viewBox="0 0 155.57915 32.15609"
   xmlns="http://www.w3.org/2000/svg"
   xmlns:svg="http://www.w3.org/2000/svg">
  <defs
     id="defs6" />
  <g
     id="g8"
     transform="translate(-86.642225,-63.296176)">
    <g
       id="g295"
       transform="translate(-0.37023313,0.74045761)">
      <path
         style="fill:#9d9c9d;stroke-width:0.320439"
         d="m 152.31966,94.574646 c 0.40148,-0.07544 1.05844,-0.07544 1.45992,0 0.40148,0.07544 0.073,0.137162 -0.72996,0.137162 -0.80296,0 -1.13144,-0.06172 -0.72996,-0.137162 z m -5.15112,-1.913014 c -0.40354,-0.501987 -0.39207,-0.513181 0.12249,-0.119496 0.54042,0.413466 0.71228,0.673372 0.44526,0.673372 -0.0674,0 -0.32285,-0.249244 -0.56775,-0.553876 z m 11.88299,-0.07912 c 0.32296,-0.34815 0.6602,-0.633 0.74942,-0.633 0.0892,0 -0.10203,0.28485 -0.42499,0.633 -0.32297,0.348151 -0.66021,0.633001 -0.74942,0.633001 -0.0892,0 0.10203,-0.28485 0.42499,-0.633001 z m -27.47495,-3.381209 c 0.23419,-0.09143 0.51401,-0.08018 0.62182,0.02499 0.1078,0.10517 -0.0838,0.179975 -0.42582,0.166232 -0.37794,-0.01519 -0.45481,-0.09018 -0.196,-0.191219 z m 10.19918,-0.01849 2.18989,-0.110721 v -7.725337 -7.725336 l -2.11008,-0.117063 -2.11008,-0.117062 2.19119,0.02348 2.19118,0.02348 0.0867,7.991633 0.0867,7.991634 -2.35767,-0.06199 -2.35767,-0.06199 z m 48.98856,0.01653 c 0.31226,-0.07961 0.82323,-0.07961 1.13549,0 0.31227,0.07961 0.0568,0.144743 -0.56774,0.144743 -0.62453,0 -0.88001,-0.06514 -0.56775,-0.144743 z m 49.15455,-0.0057 c 0.40356,-0.0757 0.98753,-0.07283 1.29771,0.0064 0.31018,0.07922 -0.02,0.141158 -0.73375,0.137645 -0.71374,-0.0035 -0.96752,-0.06833 -0.56396,-0.144032 z M 118.48232,77.865242 c -1e-4,-6.266707 0.0432,-8.875219 0.0963,-5.796693 0.0531,3.078526 0.0532,8.205831 1.9e-4,11.394012 -0.053,3.188181 -0.0964,0.669387 -0.0965,-5.597319 z m 4.21829,-0.633001 c -9e-5,-6.614857 0.0429,-9.365916 0.0956,-6.113464 0.0527,3.252452 0.0528,8.664607 1.8e-4,12.027013 -0.0526,3.362405 -0.0957,0.701308 -0.0958,-5.913549 z m 38.13527,4.136517 v -7.732245 l -0.72996,-0.137161 c -0.62587,-0.117603 -0.60274,-0.143308 0.16221,-0.180264 l 0.89218,-0.0431 v 7.912508 c 0,4.35188 -0.073,7.912509 -0.16222,7.912509 -0.0892,0 -0.16221,-3.479511 -0.16221,-7.732247 z M 87.01246,77.865242 c 1.11e-4,-6.092632 0.0437,-8.540279 0.09686,-5.439215 0.05316,3.101063 0.05307,8.085943 -2.02e-4,11.077511 -0.05327,2.991569 -0.09677,0.454335 -0.09666,-5.638296 z m 38.78525,10.799765 c 0,-0.06572 0.25549,-0.314967 0.56775,-0.553876 0.51456,-0.393685 0.52603,-0.382491 0.12249,0.119497 -0.42382,0.527209 -0.69024,0.69487 -0.69024,0.434379 z m 67.19413,-0.570617 c -0.0272,-0.612945 -0.2402,-0.886424 -0.7676,-0.985524 l -0.72996,-0.137161 0.74014,-0.0431 c 0.80388,-0.04681 1.18737,0.537016 0.94707,1.441787 -0.10198,0.383958 -0.16441,0.293108 -0.18965,-0.276 z m -41.94961,0.157407 c 0.23419,-0.09143 0.51401,-0.08018 0.62182,0.02499 0.1078,0.10517 -0.0838,0.179975 -0.42582,0.166232 -0.37794,-0.01519 -0.45481,-0.09018 -0.196,-0.191219 z m 43.6655,-0.49592 -0.61803,-0.712126 0.72996,0.60293 c 0.68598,0.566604 0.87766,0.821322 0.61803,0.821322 -0.0616,0 -0.39004,-0.320457 -0.72996,-0.712126 z m -16.06972,-0.15825 c -0.40355,-0.501987 -0.39207,-0.513182 0.12249,-0.119496 0.54042,0.413466 0.71227,0.673372 0.44526,0.673372 -0.0674,0 -0.32286,-0.249244 -0.56775,-0.553876 z m 54.22078,-0.237375 c 0.41908,-0.435188 0.83495,-0.791251 0.92417,-0.791251 0.0892,0 -0.18067,0.356063 -0.59975,0.791251 -0.41907,0.435188 -0.83495,0.791251 -0.92417,0.791251 -0.0892,0 0.18067,-0.356063 0.59975,-0.791251 z m -45.09543,0.355254 c 0,-0.06572 0.25549,-0.314967 0.56775,-0.553876 0.51456,-0.393685 0.52604,-0.382491 0.12249,0.119497 -0.42382,0.527209 -0.69024,0.69487 -0.69024,0.434379 z m -32.11832,-0.3165 c 0,-0.06572 0.25549,-0.314968 0.56775,-0.553876 0.51456,-0.393686 0.52604,-0.382491 0.12249,0.119496 -0.42382,0.52721 -0.69024,0.69487 -0.69024,0.43438 z M 169.6827,86.98267 c 0.31566,-0.08025 0.75364,-0.07497 0.97329,0.01173 0.21964,0.0867 -0.0386,0.152353 -0.57393,0.145903 -0.5353,-0.0065 -0.71501,-0.07738 -0.39936,-0.157631 z m 13.46135,-0.0045 c 0.40356,-0.0757 0.98753,-0.07283 1.29771,0.0064 0.31019,0.07922 -0.02,0.141158 -0.73374,0.137645 -0.71374,-0.0035 -0.96752,-0.06833 -0.56397,-0.144032 z m 16.54202,0.01424 c 0.22305,-0.0878 0.58803,-0.0878 0.81107,0 0.22305,0.0878 0.0406,0.159639 -0.40553,0.159639 -0.44609,0 -0.62858,-0.07184 -0.40554,-0.159639 z m 27.58013,-0.01424 c 0.40355,-0.0757 0.98752,-0.07283 1.29771,0.0064 0.31018,0.07922 -0.02,0.141158 -0.73375,0.137645 -0.71374,-0.0035 -0.96752,-0.06833 -0.56396,-0.144032 z m -55.07536,-0.528648 c 0,-0.06572 0.25549,-0.314968 0.56775,-0.553876 0.51456,-0.393686 0.52604,-0.382491 0.12249,0.119496 -0.42382,0.52721 -0.69024,0.69487 -0.69024,0.43438 z m 24.61511,-0.43438 c -0.40355,-0.501987 -0.39207,-0.513182 0.12249,-0.119496 0.31226,0.238908 0.56775,0.488152 0.56775,0.553876 0,0.26049 -0.26642,0.09283 -0.69024,-0.43438 z m 5.88108,0.43438 c 0,-0.06572 0.25549,-0.314968 0.56775,-0.553876 0.51456,-0.393686 0.52603,-0.382491 0.12249,0.119496 -0.42382,0.52721 -0.69024,0.69487 -0.69024,0.43438 z m 21.86803,-0.59263 -0.61803,-0.712126 0.72996,0.60293 c 0.68598,0.566604 0.87766,0.821322 0.61803,0.821322 -0.0616,0 -0.39004,-0.320457 -0.72996,-0.712126 z m 6.03273,0.276129 c 0,-0.06572 0.25549,-0.314967 0.56775,-0.553875 0.51456,-0.393686 0.52604,-0.382491 0.12249,0.119496 -0.42382,0.52721 -0.69024,0.69487 -0.69024,0.434379 z m -52.81843,-1.304755 c 0.007,-0.522225 0.0793,-0.697546 0.16158,-0.389602 0.0823,0.307945 0.0768,0.73522 -0.012,0.949501 -0.0889,0.214281 -0.15615,-0.03767 -0.14954,-0.559899 z m 25.91656,-0.342875 c 0.0156,-0.368705 0.0924,-0.443702 0.19601,-0.191219 0.0937,0.228473 0.0822,0.501455 -0.0256,0.606625 -0.1078,0.105171 -0.18448,-0.08176 -0.17039,-0.415406 z m -15.17648,-1.714377 c 0,-0.957414 0.0608,-1.349083 0.13515,-0.870376 0.0743,0.478707 0.0743,1.262045 0,1.740752 -0.0743,0.478707 -0.13515,0.08704 -0.13515,-0.870376 z m 6.0669,1.266001 -1.45992,-0.221428 1.54103,-0.04754 c 0.84756,-0.02614 1.54103,0.09489 1.54103,0.268964 0,0.174075 -0.0365,0.295109 -0.0811,0.268964 -0.0446,-0.02614 -0.73807,-0.147179 -1.54103,-0.268964 z M 145.6134,82.586372 c 0.0156,-0.368705 0.0924,-0.443702 0.19601,-0.191219 0.0937,0.228473 0.0822,0.501455 -0.0256,0.606625 -0.10781,0.105171 -0.18448,-0.08176 -0.1704,-0.415406 z m 66.45747,-0.211001 c 0.43259,-0.478706 0.81619,-0.870375 0.85245,-0.870375 0.0363,0 0.25927,0.249244 0.49555,0.553875 0.36471,0.470195 0.36125,0.494439 -0.0229,0.160466 -0.36648,-0.318624 -0.6102,-0.258459 -1.28206,0.3165 l -0.82957,0.70991 0.78652,-0.870376 z m 11.33815,-0.324404 c 0.13873,-0.134903 2.72316,-0.205748 5.74317,-0.157434 l 5.49095,0.08785 -5.74317,0.157434 c -3.15875,0.08659 -5.62967,0.04706 -5.49095,-0.08785 z m -3.15168,-0.545971 c 0,-0.435188 0.0736,-0.61322 0.16364,-0.395626 0.09,0.217594 0.09,0.573657 0,0.791251 -0.09,0.217594 -0.16364,0.03956 -0.16364,-0.395625 z m -43.11827,-0.791251 c 0.004,-0.696301 0.07,-0.943884 0.14764,-0.550186 0.0776,0.393699 0.0746,0.9634 -0.007,1.266002 -0.0812,0.302602 -0.14469,-0.01952 -0.14109,-0.715816 z m 30.87981,-7.121258 c 0,-4.438917 0.0456,-6.254838 0.1014,-4.035379 0.0558,2.219458 0.0558,5.8513 0,8.070758 -0.0558,2.219459 -0.1014,0.403538 -0.1014,-4.035379 z m 26.86174,6.963008 c 0,-0.609264 0.0668,-0.858508 0.14837,-0.553876 0.0816,0.304632 0.0816,0.80312 0,1.107751 -0.0816,0.304632 -0.14837,0.05539 -0.14837,-0.553875 z m -69.1271,-0.316501 c 0,-0.435188 0.0736,-0.613219 0.16364,-0.395625 0.09,0.217594 0.09,0.573657 0,0.791251 -0.09,0.217594 -0.16364,0.03956 -0.16364,-0.395626 z m 46.17969,-1.266001 c 0.69695,-0.696301 1.34018,-1.266002 1.4294,-1.266002 0.0892,0 -0.40802,0.569701 -1.10497,1.266002 -0.69695,0.696301 -1.34018,1.266001 -1.42939,1.266001 -0.0892,0 0.40801,-0.5697 1.10496,-1.266001 z m -37.77019,0.448375 c 0.0156,-0.368704 0.0924,-0.443701 0.19601,-0.191219 0.0937,0.228474 0.0822,0.501456 -0.0256,0.606626 -0.1078,0.10517 -0.18448,-0.08176 -0.1704,-0.415407 z m 9.97081,0.28492 c 0.2342,-0.09143 0.51402,-0.08018 0.62182,0.02499 0.10781,0.10517 -0.0838,0.179975 -0.42581,0.166232 -0.37794,-0.01519 -0.45481,-0.09018 -0.19601,-0.191219 z m 30.88144,-0.0088 c 0,-0.181773 0.25549,-0.525967 0.56775,-0.764875 0.52517,-0.401803 0.53206,-0.386907 0.0918,0.198621 -0.26178,0.34815 -0.51726,0.692344 -0.56775,0.764876 -0.0505,0.07253 -0.0918,-0.01685 -0.0918,-0.198622 z m 16.92146,-0.408004 c 0,-0.435188 0.0736,-0.613219 0.16364,-0.395625 0.09,0.217594 0.09,0.573657 0,0.791251 -0.09,0.217594 -0.16364,0.03956 -0.16364,-0.395626 z m -82.10577,-0.184625 c 0.0156,-0.368705 0.0924,-0.443702 0.19601,-0.191219 0.0937,0.228474 0.0822,0.501455 -0.0256,0.606626 -0.10781,0.10517 -0.18448,-0.08176 -0.1704,-0.415407 z m -4.21756,-0.3165 c 0.0156,-0.368705 0.0924,-0.443702 0.19601,-0.191219 0.0937,0.228473 0.0822,0.501455 -0.0256,0.606625 -0.10781,0.105171 -0.18448,-0.08176 -0.1704,-0.415406 z m 42.85004,-1.081377 c 0,-0.435187 0.0736,-0.613219 0.16364,-0.395625 0.09,0.217594 0.09,0.573657 0,0.791251 -0.09,0.217594 -0.16364,0.03956 -0.16364,-0.395626 z m -60.71916,-0.119496 c 0,-0.06572 0.25548,-0.314967 0.56774,-0.553875 0.51456,-0.393686 0.52604,-0.382491 0.12249,0.119496 -0.42382,0.52721 -0.69023,0.69487 -0.69023,0.434379 z m 76.88931,-0.0019 c 0,-0.06674 0.36057,-0.188595 0.80126,-0.27078 0.44068,-0.08218 0.72405,-0.02758 0.6297,0.121354 -0.16613,0.26225 -1.43096,0.394328 -1.43096,0.149436 z m 19.9523,-0.828138 c 0.32296,-0.34815 0.6602,-0.633 0.74942,-0.633 0.0892,0 -0.10203,0.28485 -0.425,0.633 -0.32296,0.348151 -0.6602,0.633001 -0.74942,0.633001 -0.0892,0 0.10203,-0.28485 0.425,-0.633001 z m -21.61582,-0.237375 c -0.40354,-0.501987 -0.39207,-0.513182 0.12249,-0.119496 0.54042,0.413466 0.71228,0.673372 0.44526,0.673372 -0.0674,0 -0.32285,-0.249244 -0.56775,-0.553876 z M 167,76.637994 c 0,-0.06572 0.25549,-0.314967 0.56775,-0.553875 0.51456,-0.393686 0.52604,-0.382491 0.12249,0.119496 C 167.26642,76.730825 167,76.898485 167,76.637994 Z m 68.70131,-1.053853 c 0.40356,-0.0757 0.98753,-0.07283 1.29771,0.0064 0.31018,0.07922 -0.02,0.141158 -0.73374,0.137645 -0.71374,-0.0035 -0.96753,-0.06833 -0.56397,-0.144032 z m -65.84229,-0.308858 c 0.2342,-0.09143 0.51402,-0.08018 0.62182,0.02499 0.10781,0.105171 -0.0838,0.179975 -0.42581,0.166232 -0.37794,-0.01519 -0.45481,-0.09018 -0.19601,-0.191219 z m 24.39289,0.09671 c 0,-0.06572 0.25549,-0.314967 0.56775,-0.553876 0.51456,-0.393685 0.52604,-0.382491 0.12249,0.119497 -0.42382,0.527209 -0.69024,0.694869 -0.69024,0.434379 z m 5.10974,-0.09012 c 0.22304,-0.0878 0.58802,-0.0878 0.81107,0 0.22304,0.0878 0.0405,0.159638 -0.40554,0.159638 -0.44609,0 -0.62858,-0.07184 -0.40553,-0.159638 z m 23.27767,-0.423389 c 0.32296,-0.34815 0.6602,-0.633 0.74942,-0.633 0.0892,0 -0.10203,0.28485 -0.42499,0.633 -0.32297,0.348151 -0.66021,0.633001 -0.74942,0.633001 -0.0892,0 0.10203,-0.28485 0.42499,-0.633001 z m 5.29222,0.416795 c 0.2342,-0.09143 0.51402,-0.08018 0.62182,0.02499 0.10781,0.105171 -0.0838,0.179975 -0.42581,0.166232 -0.37794,-0.01519 -0.45481,-0.09018 -0.19601,-0.191219 z m -62.16923,-5.085175 c 0.0613,-5.090062 0.18895,-4.497912 0.34134,1.58317 0.0469,1.871675 -0.0242,3.402746 -0.15804,3.402379 -0.13382,-3.8e-4 -0.21631,-2.243864 -0.1833,-4.985549 z m 38.67825,4.272755 -0.61803,-0.712126 0.72996,0.60293 c 0.40148,0.331611 0.72996,0.652067 0.72996,0.712125 0,0.253281 -0.2611,0.06629 -0.84189,-0.602929 z m 27.90076,0 -0.61803,-0.712126 0.72996,0.60293 c 0.40148,0.331611 0.72996,0.652067 0.72996,0.712125 0,0.253281 -0.26109,0.06629 -0.84189,-0.602929 z m 3.35999,-1.094224 c 0.40356,-0.0757 0.98753,-0.07283 1.29771,0.0064 0.31018,0.07922 -0.02,0.141158 -0.73374,0.137645 -0.71374,-0.0035 -0.96753,-0.06833 -0.56397,-0.144032 z m -48.97206,-0.308858 c 0.2342,-0.09143 0.51402,-0.08018 0.62182,0.02499 0.10781,0.10517 -0.0838,0.179975 -0.42581,0.166232 -0.37794,-0.01519 -0.45481,-0.09018 -0.19601,-0.191219 z m 50.46978,-4.214799 c 0,-2.001865 0.0527,-2.820809 0.11706,-1.819877 0.0644,1.000932 0.0644,2.638822 0,3.639754 -0.0644,1.000932 -0.11706,0.181988 -0.11706,-1.819877 z m -95.27681,0.08666 2.01191,-0.11488 0.12354,-1.728226 0.12353,-1.728226 -0.0267,1.821462 -0.0267,1.821461 -2.10877,0.02164 -2.10878,0.02165 z M 97.004769,62.594583 c 3.167221,-0.05182 8.349951,-0.05182 11.517181,0 3.16722,0.05182 0.57585,0.09421 -5.75859,0.09421 -6.33445,0 -8.925814,-0.0424 -5.758591,-0.09421 z"
         id="path309" />
      <path
         style="fill:#a4cb37;stroke-width:0.320439"
         d="M 89.792724,92.661141 C 89.171758,92.35678 88.332302,91.623813 87.927266,91.032326 87.193761,89.961165 87.190842,89.90901 87.19205,77.897562 c 0.0011,-11.40236 0.03571,-12.114534 0.634508,-13.072594 1.240688,-1.985077 1.303122,-1.993492 14.790552,-1.993492 13.55045,0 13.787,0.03218 15.0648,2.04918 0.62562,0.987546 0.65397,1.553358 0.65397,13.054264 0,16.685603 1.43295,15.279604 -15.57252,15.279604 -10.626938,0 -11.957419,-0.05676 -12.970636,-0.553383 z m 21.157716,-4.058886 c 1.66806,-1.060043 2.89659,-3.504465 3.08977,-6.147758 0.36232,-4.957504 -2.4631,-8.68604 -6.57265,-8.673542 -0.89218,0.0027 -1.96435,0.187231 -2.3826,0.410041 l -0.76046,0.405108 0.73591,0.764193 c 0.55407,0.575378 1.07649,0.764193 2.11438,0.764193 1.72532,0 3.21441,1.126414 3.68795,2.789721 0.8276,2.90693 0.0408,6.617172 -1.64791,7.771104 -0.41588,0.284178 -1.374,0.516687 -2.12914,0.516687 -1.02913,0 -1.57457,0.196649 -2.17786,0.785201 -0.87409,0.852737 -0.74877,1.053996 0.90927,1.46019 1.54087,0.37749 3.79286,0.0067 5.13334,-0.845138 z m -16.805913,0.450717 c 0.451054,-0.200492 0.906916,-0.631386 1.013026,-0.957542 0.18093,-0.556131 0.252529,-0.544085 1.151283,0.193688 1.815269,1.490127 5.596214,1.52568 7.551164,0.07101 3.83837,-2.856133 3.88194,-10.505199 0.076,-13.33722 -2.01771,-1.501376 -5.475989,-1.485063 -7.327195,0.03456 l -0.982833,0.806792 v -4.61739 -4.61739 h -2.108779 -2.108778 v 11.394012 11.394012 h 0.958017 c 0.526909,0 1.327061,-0.164039 1.778115,-0.364532 z m 2.698259,-3.670847 c -1.650268,-1.687591 -1.984391,-4.002085 -0.910776,-6.309018 0.603361,-1.296472 1.974491,-2.315617 3.11537,-2.315617 0.938853,0 2.39237,1.048244 2.89967,2.091179 0.5528,1.136477 0.65341,4.099645 0.18041,5.313336 -0.55794,1.431623 -1.51428,2.090496 -3.034322,2.090496 -1.103809,0 -1.578923,-0.183761 -2.250352,-0.870376 z m 6.893854,-15.271142 v -3.798004 h -1.45992 -1.45993 v 3.481504 c 0,3.398012 0.0175,3.48162 0.72996,3.48635 0.40148,0.0027 0.94895,0.14291 1.21661,0.311654 0.26765,0.168744 0.59613,0.308988 0.72996,0.311654 0.13383,0.0027 0.24332,-1.704255 0.24332,-3.793158 z"
         id="path307" />
      <path
         style="fill:#728b2d;stroke-width:0.320439"
         d="m 107.0682,89.514672 c 0.31565,-0.08025 0.75363,-0.07497 0.97328,0.01173 0.21965,0.0867 -0.0386,0.152354 -0.57392,0.145904 -0.53531,-0.0065 -0.71502,-0.07738 -0.39936,-0.157631 z m 4.61691,-1.67967 c 0.32297,-0.34815 0.66021,-0.633 0.74942,-0.633 0.0892,0 -0.10203,0.28485 -0.42499,0.633 -0.32296,0.348151 -0.6602,0.633001 -0.74942,0.633001 -0.0892,0 0.10203,-0.28485 0.42499,-0.633001 z m -4.94134,-0.535832 c 0.31566,-0.08025 0.75363,-0.07497 0.97328,0.01173 0.21965,0.0867 -0.0386,0.152355 -0.57392,0.145904 -0.53531,-0.0064 -0.71502,-0.07738 -0.39936,-0.15763 z m 7.10135,-4.211673 c 0,-0.435188 0.0736,-0.613219 0.16363,-0.395625 0.09,0.217594 0.09,0.573657 0,0.791251 -0.09,0.217594 -0.16363,0.03956 -0.16363,-0.395626 z m -2.55829,-1.582501 c 0,-0.783339 0.0633,-1.103795 0.1406,-0.712126 0.0773,0.391669 0.0773,1.032582 0,1.424251 -0.0773,0.391669 -0.1406,0.07121 -0.1406,-0.712125 z m 2.57031,-1.107752 c 0.007,-0.522225 0.0793,-0.697546 0.16158,-0.389601 0.0823,0.307944 0.0768,0.735219 -0.012,0.949501 -0.0889,0.21428 -0.15617,-0.03767 -0.14956,-0.5599 z m -4.14942,-3.402378 -0.61803,-0.712126 0.72997,0.602929 c 0.40147,0.331611 0.72996,0.652068 0.72996,0.712126 0,0.25328 -0.2611,0.06629 -0.8419,-0.602929 z m -4.64122,-1.628238 c -0.56716,-0.588963 -0.63399,-0.811878 -0.29987,-1.000243 0.23646,-0.133311 0.3191,-0.123296 0.18365,0.02226 -0.13546,0.145551 0.0725,0.59566 0.46208,1.000244 0.38961,0.404582 0.63538,0.735605 0.54616,0.735605 -0.0892,0 -0.49062,-0.341038 -0.89202,-0.757862 z m 1.67109,0.53969 c 0.31227,-0.07961 0.82324,-0.07961 1.1355,0 0.31226,0.07961 0.0568,0.144743 -0.56775,0.144743 -0.62452,0 -0.88001,-0.06513 -0.56775,-0.144743 z m -3.38684,-5.636462 0.10074,-3.640376 h -1.15513 -1.15514 v 3.138628 c 0,2.214762 0.11937,3.185618 0.40553,3.298267 0.24227,0.09537 0.17696,0.169698 -0.16221,0.184625 -0.50786,0.02235 -0.56775,-0.342281 -0.56775,-3.456517 v -3.481504 h 1.45993 1.45992 v 3.798004 c 0,2.088903 -0.10949,3.798284 -0.24332,3.798626 -0.13383,3.49e-4 -0.19799,-1.637547 -0.14257,-3.639753 z m 3.71745,3.4198 c 0.31565,-0.08025 0.75363,-0.07497 0.97328,0.01173 0.21965,0.0867 -0.0386,0.152354 -0.57392,0.145904 -0.53531,-0.0065 -0.71502,-0.07738 -0.39936,-0.15763 z"
         id="path305" />
      <path
         style="fill:#ea1b23;stroke-width:0.320439"
         d="m 149.66841,94.011437 c -1.58569,-0.55117 -3.01728,-1.918014 -3.41077,-3.2565 l -0.30013,-1.020933 h 2.24835 c 1.28261,0 2.24834,0.135947 2.24834,0.316501 0,0.174075 0.29199,0.60135 0.64886,0.949501 0.48897,0.477025 1.08142,0.633 2.40436,0.633 1.56202,0 1.84809,-0.10733 2.59542,-0.973784 0.68518,-0.794391 0.83991,-1.300907 0.83991,-2.749467 v -1.775683 l -0.89218,0.832076 c -2.64909,2.470652 -7.96801,1.293722 -9.50669,-2.103569 -1.78136,-3.93313 -0.76842,-8.874123 2.22235,-10.84036 2.16472,-1.423161 5.4848,-1.205368 7.20483,0.472628 l 0.87234,0.851027 0.82338,-0.876693 c 0.60871,-0.648128 1.12916,-0.876694 1.99624,-0.876694 h 1.17286 v 8.080924 c 0,6.071076 -0.10902,8.335461 -0.43831,9.10433 -0.57937,1.352735 -2.48882,2.955123 -4.0137,3.368237 -1.70912,0.46303 -5.19734,0.393144 -6.71546,-0.134541 z m 5.61429,-9.541053 c 0.41542,-0.283862 0.95888,-0.991414 1.20768,-1.572336 0.92254,-2.154008 0.33388,-5.204071 -1.20768,-6.257443 -0.95648,-0.653574 -2.84465,-0.664625 -3.78488,-0.02215 -2.13323,1.457661 -2.30396,5.586226 -0.3166,7.65592 0.83419,0.868757 2.96772,0.970719 4.10148,0.196011 z M 91.408395,78.023492 V 66.62948 h 2.108778 2.108779 v 4.61739 4.617389 l 0.982833,-0.806792 c 1.851206,-1.519626 5.309485,-1.535939 7.327195,-0.03456 3.80596,2.832021 3.76239,10.481087 -0.076,13.33722 -1.95495,1.454674 -5.735895,1.419121 -7.551164,-0.07101 -0.898754,-0.737773 -0.970353,-0.749819 -1.151283,-0.193688 -0.23531,0.723281 -1.499473,1.322074 -2.791141,1.322074 h -0.958017 z m 9.745785,7.583369 c 0.36399,-0.355102 0.80197,-1.005287 0.97328,-1.444856 0.473,-1.213691 0.37239,-4.176859 -0.18041,-5.313336 -0.5073,-1.042935 -1.960817,-2.091179 -2.89967,-2.091179 -1.140879,0 -2.512009,1.019145 -3.11537,2.315617 -1.073615,2.306933 -0.739492,4.621427 0.910776,6.309018 1.088994,1.113623 3.283004,1.227989 4.311394,0.224736 z m 21.72368,-8.348049 V 65.333273 l 2.02767,0.09423 2.02768,0.09423 0.0898,4.667275 0.0898,4.667276 1.23783,-0.799141 c 2.77617,-1.79229 6.69129,-1.237684 8.50492,1.204784 2.44001,3.286032 2.49496,7.884779 0.13578,11.362642 -1.87255,2.760476 -7.00564,3.351823 -9.33863,1.075839 -0.52042,-0.507708 -0.59511,-0.490734 -1.28535,0.292104 -0.49677,0.563424 -1.17678,0.889229 -2.11113,1.011489 l -1.37831,0.180353 z m 9.97909,7.965062 c 0.9569,-0.996545 1.37588,-2.23474 1.37588,-4.066148 0,-2.745925 -1.57526,-5.033236 -3.46636,-5.033236 -3.84754,0 -5.46677,6.299027 -2.34792,9.133686 1.06254,0.965716 3.49623,0.946908 4.4384,-0.0343 z m 6.89114,-3.877129 v -7.754258 h 2.10878 2.10878 v 7.754258 7.754259 h -2.10878 -2.10878 z m 0.0642,-14.16339 0.0981,-1.661626 2.02767,-0.09423 2.02767,-0.09423 v 1.755855 1.755854 H 141.84 139.71426 Z"
         id="path303" />
      <path
         style="fill:#5d5b5c;stroke-width:0.320439"
         d="m 169.67653,89.199332 c 0.31226,-0.07961 0.82324,-0.07961 1.1355,0 0.31226,0.07961 0.0568,0.144743 -0.56775,0.144743 -0.62452,0 -0.88001,-0.06513 -0.56775,-0.144743 z m 14.13287,0.002 c 0.2342,-0.09143 0.51402,-0.08018 0.62182,0.02499 0.10781,0.105171 -0.0838,0.179975 -0.42581,0.166232 -0.37794,-0.01519 -0.45481,-0.09018 -0.19601,-0.191219 z m 43.4568,-0.0076 c 0.40355,-0.0757 0.98752,-0.07283 1.29771,0.0064 0.31018,0.07922 -0.02,0.141158 -0.73375,0.137645 -0.71374,-0.0035 -0.96752,-0.06833 -0.56396,-0.144032 z m 15.00098,-1.020135 c 0,-0.710199 -0.17101,-0.959623 -0.72996,-1.06465 -0.62587,-0.117602 -0.60273,-0.143308 0.16222,-0.180263 0.81176,-0.03922 0.89217,0.05675 0.89217,1.064649 0,0.609264 -0.073,1.107752 -0.16221,1.107752 -0.0892,0 -0.16222,-0.41737 -0.16222,-0.927488 z m -79.08332,-11.0204 -0.077,-11.789638 1.37882,0.05321 1.37882,0.0532 -1.21263,0.12392 -1.21262,0.123919 -0.0892,11.612513 -0.0892,11.612513 z m 41.44973,10.87889 c 0,-0.06572 0.25549,-0.314967 0.56775,-0.553875 0.51456,-0.393686 0.52604,-0.382491 0.12249,0.119496 -0.42382,0.52721 -0.69024,0.69487 -0.69024,0.434379 z m 17.80213,-0.750879 c -0.40354,-0.501988 -0.39207,-0.513182 0.12249,-0.119497 0.31227,0.238909 0.56775,0.488153 0.56775,0.553876 0,0.260491 -0.26641,0.09283 -0.69024,-0.434379 z m -31.2975,-5.776131 c 0,-2.698166 0.0498,-3.801961 0.11057,-2.452878 0.0608,1.349083 0.0608,3.556672 0,4.905755 -0.0608,1.349083 -0.11057,0.245288 -0.11057,-2.452877 z m 48.68362,-0.553571 0.0121,-5.301686 1.37882,-0.179528 c 0.75834,-0.09874 1.37881,-0.06313 1.37881,0.07913 0,0.142259 -0.58044,0.258652 -1.28986,0.258652 h -1.28987 l -0.10108,5.222561 -0.10109,5.22256 z m -16.64465,2.136072 c 0,-0.435188 0.0736,-0.613219 0.16363,-0.395625 0.09,0.217594 0.09,0.573657 0,0.791251 -0.09,0.217594 -0.16363,0.03956 -0.16363,-0.395626 z m -42.2268,0.197004 c 0,-0.06572 0.25548,-0.314967 0.56774,-0.553875 0.51457,-0.393686 0.52604,-0.382491 0.12249,0.119496 -0.42382,0.52721 -0.69023,0.69487 -0.69023,0.434379 z m -2.271,-1.266001 c 0,-0.06572 0.25549,-0.314967 0.56775,-0.553876 0.51456,-0.393685 0.52604,-0.382491 0.12249,0.119497 -0.42382,0.527209 -0.69024,0.694869 -0.69024,0.434379 z m 44.47219,-2.280631 c 0.0156,-0.368705 0.0924,-0.443702 0.196,-0.191219 0.0937,0.228473 0.0822,0.501455 -0.0256,0.606625 -0.1078,0.105171 -0.18448,-0.08176 -0.17039,-0.415406 z m -2.59542,-0.316501 c 0.0156,-0.368704 0.0924,-0.443701 0.196,-0.191219 0.0937,0.228474 0.0822,0.501456 -0.0256,0.606626 -0.1078,0.10517 -0.18448,-0.08176 -0.17039,-0.415407 z m -2.31017,-3.059503 c 1.34442,-1.397409 1.6357,-1.64868 1.6357,-1.411024 0,0.05079 -0.69347,0.727313 -1.54103,1.503376 l -1.54103,1.411025 z m 12.30042,-0.15825 c -0.40355,-0.501987 -0.39207,-0.513182 0.12249,-0.119496 0.31226,0.238908 0.56775,0.488152 0.56775,0.553875 0,0.260491 -0.26642,0.09283 -0.69024,-0.434379 z M 216.15077,75.17507 c 0.32296,-0.348151 0.6602,-0.633001 0.74942,-0.633001 0.0892,0 -0.10203,0.28485 -0.42499,0.633001 -0.32297,0.34815 -0.66021,0.633 -0.74942,0.633 -0.0892,0 0.10203,-0.28485 0.42499,-0.633 z m 10.80749,0.100294 c 0.2342,-0.09143 0.51402,-0.08018 0.62182,0.02499 0.10781,0.105171 -0.0838,0.179975 -0.42581,0.166232 -0.37794,-0.01519 -0.45481,-0.09018 -0.19601,-0.191219 z m -52.21338,-0.65417 c -0.40355,-0.501987 -0.39207,-0.513182 0.12249,-0.119496 0.54042,0.413466 0.71227,0.673372 0.44526,0.673372 -0.0674,0 -0.32286,-0.249244 -0.56775,-0.553876 z m 60.43612,-0.07912 c 0,-0.435188 0.0736,-0.613219 0.16364,-0.395625 0.09,0.217594 0.09,0.573657 0,0.791251 -0.09,0.217594 -0.16364,0.03956 -0.16364,-0.395626 z m -68.82985,0.197004 c 0,-0.06572 0.25548,-0.314967 0.56775,-0.553875 0.51456,-0.393686 0.52603,-0.382491 0.12249,0.119496 -0.42383,0.52721 -0.69024,0.69487 -0.69024,0.434379 z m 73.32061,-5.083654 V 65.71819 l -1.2166,-0.124151 -1.2166,-0.124151 1.37882,-0.0532 1.37881,-0.05321 v 4.114505 c 0,2.262977 -0.073,4.114504 -0.16221,4.114504 -0.0892,0 -0.16222,-1.771717 -0.16222,-3.937149 z m -55.86236,3.404443 c 0.2342,-0.09143 0.51402,-0.08018 0.62182,0.02499 0.10781,0.10517 -0.0838,0.179975 -0.42581,0.166232 -0.37794,-0.01519 -0.45481,-0.09018 -0.19601,-0.191219 z m 14.90339,0.0066 c 0.22305,-0.0878 0.58803,-0.0878 0.81107,0 0.22304,0.0878 0.0405,0.159638 -0.40553,0.159638 -0.44609,0 -0.62858,-0.07184 -0.40554,-0.159638 z m 1.62214,0 c 0.22304,-0.0878 0.58802,-0.0878 0.81107,0 0.22304,0.0878 0.0406,0.159638 -0.40554,0.159638 -0.44608,0 -0.62857,-0.07184 -0.40553,-0.159638 z m 8.43511,-7.609761 c 0.40148,-0.07544 1.05845,-0.07544 1.45993,0 0.40148,0.07544 0.073,0.137161 -0.72996,0.137161 -0.80296,0 -1.13144,-0.06172 -0.72997,-0.137161 z"
         id="path301" />
      <path
         style="fill:#221e1f;stroke-width:0.320439"
         d="m 105.6832,89.067142 c 0,-0.1927 -0.21431,-0.270133 -0.47625,-0.172073 -0.81687,0.305804 -0.83726,-0.302242 -0.0348,-1.037702 0.64914,-0.594935 0.86482,-0.642848 1.40695,-0.312556 0.35215,0.214551 0.84211,0.314535 1.08879,0.222188 0.24668,-0.09235 0.5945,-0.201693 0.77294,-0.242991 0.56692,-0.13121 2.15296,-1.333907 1.98069,-1.501964 -0.091,-0.08877 0.0479,-0.369566 0.30873,-0.623989 0.2608,-0.254423 0.39122,-0.593531 0.28983,-0.753572 -0.10138,-0.160042 -0.0343,-0.290984 0.14905,-0.290984 0.18337,0 0.24865,-0.215452 0.14507,-0.478782 -0.10358,-0.263329 -0.01,-0.688643 0.20841,-0.945141 0.25063,-0.294614 0.32103,-0.905058 0.19116,-1.657597 -0.11306,-0.655179 -0.23355,-1.440479 -0.26775,-1.745111 -0.0342,-0.304631 -0.1723,-0.553875 -0.3069,-0.553875 -0.13459,0 -0.16069,-0.213638 -0.058,-0.474751 0.10576,-0.26886 0.008,-0.47475 -0.22647,-0.47475 -0.22726,0 -0.32397,-0.08705 -0.21491,-0.193451 0.23629,-0.23052 -1.72921,-1.898891 -2.10252,-1.784676 -0.14225,0.04352 -0.25863,-0.04663 -0.25863,-0.20034 0,-0.153705 -0.47447,-0.248681 -1.05438,-0.211057 -0.57992,0.03762 -1.30988,-0.143542 -1.62214,-0.40259 -0.57839,-0.479827 -0.7648,-1.036243 -0.32443,-0.96841 0.13383,0.02061 0.38931,0.0093 0.56775,-0.0252 1.07323,-0.207346 3.89425,-0.009 3.99326,0.280768 0.0646,0.189143 0.25102,0.26339 0.41422,0.164994 0.16319,-0.09839 0.29672,-0.02807 0.29672,0.15628 0,0.184348 0.19636,0.335179 0.43636,0.335179 0.23999,0 0.7006,0.28485 1.02356,0.633 0.32296,0.348151 0.46896,0.633001 0.32443,0.633001 -0.14453,0 -0.0208,0.260802 0.27485,0.57956 0.2957,0.318758 0.43999,0.674821 0.32064,0.791251 -0.11935,0.11643 -0.0311,0.211691 0.19622,0.211691 0.234,0 0.33222,0.20589 0.22646,0.47475 -0.1027,0.261113 -0.0818,0.474751 0.0464,0.474751 0.21712,0 0.29668,0.560448 0.35947,2.532003 0.0471,1.479671 -0.12562,2.848503 -0.35947,2.848503 -0.12823,0 -0.1491,0.213637 -0.0464,0.47475 0.10271,0.261113 0.0165,0.474751 -0.19154,0.474751 -0.20806,0 -0.28806,0.142425 -0.17778,0.3165 0.11028,0.174075 0.0373,0.3165 -0.16221,0.3165 -0.1995,0 -0.27249,0.142425 -0.16221,0.316501 0.11028,0.174075 0.0459,0.3165 -0.14307,0.3165 -0.18897,0 -0.30708,0.109569 -0.26247,0.243488 0.14396,0.432186 -1.35627,1.771509 -2.10876,1.882575 -0.40149,0.05926 -0.77864,0.246051 -0.83812,0.415092 -0.15332,0.43574 -3.62278,0.394546 -3.62278,-0.04301 z m 76.51082,0.05598 c -0.0595,-0.161911 -0.54611,-0.339942 -1.08142,-0.395625 -0.59599,-0.062 -1.23698,-0.436994 -1.65353,-0.967369 -0.37414,-0.47637 -0.78333,-0.765562 -0.90932,-0.642648 -0.12599,0.122913 -0.13275,-0.02142 -0.015,-0.32075 0.11772,-0.299326 0.0786,-0.544228 -0.0869,-0.544228 -0.17543,0 -0.20692,-0.693116 -0.0755,-1.661627 0.12401,-0.913895 0.17893,-1.713073 0.12204,-1.775952 -0.13712,-0.151536 1.45803,-1.436512 2.35355,-1.895905 0.38975,-0.199937 1.08321,-0.363522 1.54103,-0.363522 0.45782,0 0.8324,-0.133471 0.8324,-0.296602 0,-0.163131 0.51097,-0.215709 1.13549,-0.116839 0.62453,0.09887 1.1355,0.0473 1.1355,-0.114595 0,-0.161897 0.51097,-0.236163 1.1355,-0.165035 0.72546,0.08262 1.13549,-0.0042 1.13549,-0.240482 0,-0.203394 0.13867,-0.2862 0.30815,-0.184013 0.40258,0.242729 0.98956,-0.844744 0.98956,-1.833317 0,-0.689572 -1.26003,-2.658944 -1.28691,-2.01139 -0.006,0.14299 -0.22902,0.04709 -0.49573,-0.213108 -0.5235,-0.510707 -4.05705,-0.616428 -4.05705,-0.121383 0,0.148564 -0.12399,0.195356 -0.27554,0.103982 -0.31786,-0.191647 -1.86549,1.422525 -1.73916,1.813928 0.0463,0.143496 -0.0536,0.177793 -0.2221,0.07622 -0.16847,-0.101577 -0.52776,0.03135 -0.79842,0.295402 -0.31429,0.306606 -0.56689,0.362051 -0.69905,0.153437 -0.29997,-0.473502 0.12955,-2.103544 0.66949,-2.5407 0.25422,-0.205827 0.36827,-0.522525 0.25345,-0.703772 -0.11565,-0.182547 -0.0534,-0.235842 0.13963,-0.11948 0.19162,0.115534 0.56177,0.0019 0.82257,-0.252527 0.2608,-0.254423 0.56455,-0.37442 0.67501,-0.266659 0.11046,0.107761 0.20084,0.05443 0.20084,-0.118506 0,-0.172939 0.42068,-0.2542 0.93486,-0.180579 0.51418,0.07362 1.03376,-0.02226 1.15464,-0.213066 0.26482,-0.418009 1.3814,-0.4625 1.53327,-0.06109 0.0595,0.157205 0.69211,0.335237 1.40585,0.395626 0.93549,0.07915 1.61466,0.405813 2.43321,1.170298 l 1.13549,1.0605 -0.0962,5.190381 c -0.0571,3.077723 0.0273,5.190382 0.20728,5.190382 0.16693,0 0.28324,0.249244 0.25845,0.553875 -0.0291,0.357528 0.18496,0.553876 0.6038,0.553876 0.42588,0 0.68448,0.244713 0.75252,0.712126 0.0907,0.622718 -0.0396,0.712125 -1.03767,0.712125 -1.1491,0 -2.79691,-1.094738 -2.79691,-1.858155 0,-0.198725 -0.60121,0.06355 -1.33602,0.582837 -0.7348,0.519285 -1.83136,1.034812 -2.43679,1.145616 -0.60542,0.110803 -1.18077,0.327741 -1.27855,0.482082 -0.2352,0.371258 -1.35362,0.360937 -1.49127,-0.01376 z m 3.89596,-2.107825 c 0.1174,-0.158424 0.43245,-0.334868 0.7001,-0.392096 0.70066,-0.149811 1.63727,-1.040263 1.43313,-1.3625 -0.0955,-0.15081 -0.0105,-0.274201 0.18901,-0.274201 0.1995,0 0.27249,-0.142425 0.16221,-0.3165 -0.11028,-0.174075 -0.0383,-0.3165 0.16002,-0.3165 0.2311,0 0.32533,-0.596562 0.26247,-1.661627 l -0.0981,-1.661627 -1.62214,0.09242 c -0.89217,0.05083 -1.6622,0.203682 -1.71116,0.339676 -0.049,0.135994 -0.52344,0.185061 -1.05439,0.109038 -0.60586,-0.08675 -0.96536,9.49e-4 -0.96536,0.235527 0,0.219098 -0.2474,0.29715 -0.59788,0.188629 -0.67445,-0.208831 -2.43735,0.970284 -2.1437,1.433811 0.10145,0.160137 0.0298,0.291157 -0.15912,0.291157 -0.18897,0 -0.34358,0.356063 -0.34358,0.791251 0,0.435188 0.15461,0.791251 0.34358,0.791251 0.18896,0 0.25334,0.142425 0.14306,0.3165 -0.11028,0.174075 -0.0373,0.3165 0.16222,0.3165 0.19949,0 0.27866,0.13268 0.17593,0.294845 -0.10273,0.162165 0.14414,0.528097 0.5486,0.813183 0.78685,0.554614 3.99825,0.533715 4.41506,-0.02873 z m 12.9738,2.084304 c -0.0598,-0.174847 -0.72812,-0.352878 -1.48528,-0.395625 -0.75716,-0.04275 -1.37742,-0.176489 -1.37834,-0.297203 -9.7e-4,-0.120715 -0.40963,-0.454572 -0.90822,-0.741905 -0.4986,-0.287332 -0.93009,-0.82737 -0.95887,-1.200082 -0.0288,-0.372713 -0.18931,-0.722204 -0.35673,-0.776648 -0.53093,-0.172652 0.001,-1.334638 0.6113,-1.334638 0.94181,0 1.58151,0.339283 1.41895,0.75257 -0.083,0.211026 0.21819,0.696785 0.66934,1.079465 0.45114,0.382679 0.82249,0.589904 0.82523,0.460499 0.003,-0.129405 0.1434,-0.02165 0.31259,0.239468 0.21833,0.336939 0.87955,0.474751 2.27786,0.474751 1.39831,0 2.05953,-0.137812 2.27786,-0.474751 0.16919,-0.261113 0.30986,-0.345857 0.31259,-0.188321 0.003,0.157536 0.29351,0.03168 0.64617,-0.279675 0.35267,-0.311357 0.56304,-0.689494 0.4675,-0.840304 -0.0955,-0.150811 -0.0191,-0.274201 0.16986,-0.274201 0.56754,0 0.38725,-1.445838 -0.2505,-2.008889 -0.32674,-0.288472 -0.69172,-0.429234 -0.81107,-0.312804 -0.11934,0.11643 -0.21699,0.05102 -0.21699,-0.145361 0,-0.450215 -2.34956,-1.086626 -3.04732,-0.825411 -0.28676,0.107352 -0.52138,0.05485 -0.52138,-0.116679 0,-0.336462 -2.56947,-1.074869 -2.94738,-0.847011 -0.1259,0.07591 -0.31617,-0.08383 -0.42283,-0.354979 -0.10665,-0.271146 -0.34455,-0.402167 -0.52867,-0.291157 -0.18412,0.11101 -0.31535,0.08443 -0.29163,-0.05906 0.0746,-0.451361 -0.41607,-1.685153 -0.67018,-1.685153 -0.30928,0 0.0925,-2.170922 0.55647,-3.006753 0.45931,-0.827437 1.92438,-2.057937 2.16766,-1.820598 0.10449,0.10194 0.18999,0.05103 0.18999,-0.113142 0,-0.16417 0.58397,-0.24416 1.29771,-0.177757 0.93483,0.08697 1.2991,8.23e-4 1.30268,-0.308137 0.003,-0.300252 0.0764,-0.320395 0.24332,-0.06717 0.13109,0.198936 0.89532,0.412573 1.69828,0.47475 1.05509,0.0817 1.69837,0.348501 2.31984,0.962145 0.47295,0.467002 0.91683,0.79357 0.9864,0.725705 0.0696,-0.06786 0.14976,0.178141 0.17821,0.546678 0.0285,0.368538 0.22872,0.776771 0.44502,0.907185 0.25395,0.153118 0.11605,0.275327 -0.38929,0.344979 -0.4893,0.06744 -1.13191,-0.188651 -1.71483,-0.68339 -0.51276,-0.435188 -1.06023,-0.755644 -1.2166,-0.712126 -0.15638,0.04352 -0.28433,-0.07854 -0.28433,-0.271237 0,-0.192699 -0.21898,-0.268382 -0.48664,-0.168183 -0.26765,0.100198 -0.48664,0.04422 -0.48664,-0.124389 0,-0.506563 -2.02946,-0.344973 -3.24427,0.258318 -0.62453,0.310145 -1.099,0.737199 -1.05439,0.949009 0.0446,0.21181 -0.0558,0.385108 -0.22316,0.385108 -0.16735,0 -0.28452,0.320457 -0.26039,0.712126 0.054,0.876663 1.45134,2.236521 2.06288,2.007582 0.24659,-0.09231 0.44834,-0.05434 0.44834,0.08437 0,0.324112 3.20762,1.05338 3.59799,0.818018 0.16232,-0.09787 0.29514,-0.05573 0.29514,0.09365 0,0.28423 2.25452,1.207427 2.67653,1.096005 0.13382,-0.03533 0.22753,0.04257 0.20823,0.173132 -0.0707,0.478105 0.44343,1.661627 0.72178,1.661627 0.40628,0 0.35758,1.823164 -0.0522,1.956439 -0.18637,0.0606 -0.3685,0.392929 -0.40475,0.738501 -0.0362,0.345572 -0.44094,0.984376 -0.89932,1.419564 -0.89364,0.848419 -0.9018,0.852161 -2.49354,1.143477 -0.57992,0.106134 -1.05439,0.319546 -1.05439,0.474248 0,0.390044 -2.19155,0.355528 -2.32554,-0.03663 z m 9.24852,-5.616477 c 0.11692,-3.26391 0.213,-8.518058 0.21351,-11.675886 l 9.1e-4,-5.741504 1.14601,-0.13052 1.146,-0.13052 -0.0217,7.138026 c -0.0119,3.925913 -0.0166,7.268542 -0.0105,7.428063 0.006,0.15952 0.61781,-0.338968 1.35925,-1.107751 0.74145,-0.768784 1.22733,-1.184152 1.07973,-0.923039 -0.17171,0.303778 -0.0146,0.257618 0.43627,-0.128179 0.75711,-0.647844 0.9416,-1.001559 0.33007,-0.632848 -0.23393,0.141041 -0.28641,0.0867 -0.1398,-0.144734 0.12912,-0.203811 0.35115,-0.300388 0.49341,-0.214616 0.36222,0.218394 1.37445,-0.935193 1.07604,-1.22631 -0.13422,-0.130936 -0.0799,-0.190591 0.12075,-0.132565 0.20063,0.05802 0.86533,-0.3353 1.47711,-0.874056 0.91137,-0.802583 1.25218,-0.929083 1.88644,-0.70019 0.74749,0.269759 0.68818,0.363686 -1.72494,2.731734 -2.05438,2.016006 -2.42609,2.528993 -2.08901,2.882999 0.3323,0.348974 0.32761,0.384936 -0.0247,0.189648 -0.23912,-0.132541 -0.0372,0.345052 0.44865,1.061319 0.48588,0.716266 1.01863,1.302303 1.18388,1.302303 0.16526,0 0.2096,0.143431 0.0985,0.318735 -0.11106,0.175305 0.0255,0.403867 0.30342,0.507915 0.27794,0.104049 0.42393,0.317687 0.32442,0.474751 -0.0995,0.157064 0.023,0.361907 0.27222,0.455206 0.24923,0.0933 0.45314,0.345926 0.45314,0.561394 0,0.541249 1.08773,2.113003 1.46231,2.113003 0.16844,0 0.22158,0.133672 0.11807,0.297048 -0.10349,0.163377 0.0235,0.412621 0.28224,0.553876 0.45809,0.250094 0.51651,0.370758 0.51651,1.066757 0,0.184349 0.14599,0.247156 0.32443,0.139571 0.17843,-0.107584 0.32443,-0.04478 0.32443,0.139572 0,0.191736 -0.70241,0.335179 -1.64129,0.335179 -1.01925,0 -1.56475,-0.120798 -1.43936,-0.318736 0.11106,-0.175304 -0.0255,-0.403866 -0.30341,-0.507915 -0.27794,-0.104048 -0.44553,-0.283604 -0.37241,-0.399013 0.22181,-0.35013 -1.30789,-2.588426 -1.59527,-2.33424 -0.14716,0.130158 -0.16583,0.06381 -0.0415,-0.147431 0.12434,-0.211245 -0.0348,-0.650389 -0.35352,-0.975876 -0.31877,-0.325487 -0.6241,-0.793564 -0.67852,-1.04017 -0.0544,-0.246607 -0.2734,-0.591316 -0.48664,-0.766021 -0.21323,-0.174704 -0.43463,-0.530767 -0.49198,-0.791251 -0.21952,-0.996979 -0.6929,-0.989074 -1.99704,0.03335 l -1.34524,1.05465 0.10114,3.097017 0.10114,3.097016 -1.2679,-6.96e-4 -1.26789,-6.83e-4 z m -40.48935,4.918757 c -0.32544,-0.301425 -0.73929,-0.459064 -0.91967,-0.35031 -0.18038,0.108755 -0.23585,0.05234 -0.12327,-0.125367 0.11258,-0.177706 -0.0694,-0.565053 -0.4043,-0.86077 -0.61662,-0.544395 -1.24999,-0.20099 -0.83563,0.453069 0.11028,0.174075 0.0373,0.3165 -0.16221,0.3165 -0.1995,0 -0.29164,0.112211 -0.20475,0.249358 0.0869,0.137146 -0.19649,0.277976 -0.62971,0.312955 l -0.78768,0.0636 V 77.228696 65.996479 h 0.81107 0.81107 v 4.589255 c 0,4.320649 0.0366,4.589255 0.6253,4.589255 0.34392,0 0.90851,-0.351233 1.25464,-0.780518 0.34614,-0.429285 0.72171,-0.690398 0.83462,-0.580251 0.11291,0.110147 0.20528,0.04744 0.20528,-0.139352 0,-0.186791 0.29199,-0.26513 0.64886,-0.174087 0.35687,0.09104 0.64885,0.04073 0.64885,-0.111815 0,-0.289708 1.98844,-0.388631 2.271,-0.112979 0.0892,0.08704 0.74166,0.4431 1.44988,0.791251 0.70821,0.34815 1.61813,1.131488 2.02205,1.740751 0.40391,0.609264 0.84694,1.250177 0.98451,1.424252 0.13758,0.174075 0.20294,0.636957 0.14527,1.028626 -0.0577,0.391669 0.0148,0.712547 0.16103,0.713061 0.14623,5.07e-4 0.26588,0.783882 0.26588,1.740817 0,0.956934 -0.12606,1.739851 -0.28014,1.739816 -0.15408,-3.6e-5 -0.21963,0.402161 -0.14567,0.89377 0.0761,0.506178 -0.0581,1.069325 -0.30954,1.298472 -0.24421,0.222551 -0.36573,0.603664 -0.27005,0.846917 0.0957,0.243254 0.0638,0.44228 -0.0709,0.44228 -0.13465,0 -0.67754,0.549264 -1.20642,1.220586 -0.52888,0.671322 -1.07353,1.230227 -1.21033,1.242011 -0.13679,0.01178 -0.71289,0.120884 -1.28022,0.242445 -1.98539,0.425412 -3.68333,0.330949 -4.29887,-0.239162 z m 5.03802,-2.011014 c 0.51989,-0.485908 0.88072,-0.946414 0.80186,-1.023346 -0.0789,-0.07693 0.077,-0.354924 0.34647,-0.617759 0.26942,-0.262834 0.41304,-0.673154 0.31916,-0.911822 -0.0939,-0.238668 -0.0293,-0.433941 0.14356,-0.433941 0.42065,0 0.40598,-4.654838 -0.0155,-4.908946 -0.18134,-0.10934 -0.253,-0.3199 -0.15923,-0.467914 0.0938,-0.148013 -0.0603,-0.494234 -0.34231,-0.769381 -0.28204,-0.275146 -0.41149,-0.500267 -0.28768,-0.500267 0.12381,0 0.0447,-0.212069 -0.1758,-0.471265 -0.2205,-0.259196 -0.51507,-0.402439 -0.65459,-0.318318 -0.13952,0.08412 -0.34319,-0.07465 -0.45261,-0.352824 -0.11343,-0.288365 -0.40695,-0.427901 -0.68285,-0.324616 -0.26615,0.09964 -0.48391,0.0432 -0.48391,-0.125412 0,-0.168611 -0.51097,-0.306567 -1.1355,-0.306567 -0.62452,0 -1.13549,0.150831 -1.13549,0.33518 0,0.184348 -0.14599,0.247155 -0.32443,0.139571 -0.17843,-0.107585 -0.32443,-0.03637 -0.32443,0.15825 0,0.194622 -0.12477,0.27863 -0.27727,0.186684 -0.15249,-0.09195 -0.61592,0.184499 -1.02983,0.614322 -0.41391,0.429822 -0.64369,0.781496 -0.51063,0.781496 0.13307,0 0.004,0.232002 -0.28653,0.51556 -0.29066,0.283557 -0.45166,0.710833 -0.35778,0.949501 0.0939,0.238667 0.0293,0.433941 -0.14356,0.433941 -0.43696,0 -0.39678,4.638672 0.0472,5.447967 0.43903,0.800288 2.26939,2.617429 2.90717,2.88617 1.06347,0.448113 3.26738,-0.03104 4.2145,-0.916264 z m 52.45481,2.343505 c -0.0446,-0.114611 -0.36743,-0.257036 -0.71748,-0.316501 -1.19141,-0.202397 -3.4189,-3.252596 -3.4189,-4.681655 0,-0.356795 -0.12282,-0.648718 -0.27292,-0.648718 -0.32947,0 -0.25636,-2.78144 0.0936,-3.560629 0.13682,-0.304631 0.16472,-0.767513 0.062,-1.028626 -0.1027,-0.261112 -0.063,-0.47475 0.0881,-0.47475 0.313,0 1.20112,-1.921303 1.07156,-2.318153 -0.0469,-0.143495 0.0539,-0.177034 0.22393,-0.07453 0.17001,0.102504 0.40313,-0.102615 0.51804,-0.455821 0.11491,-0.353206 0.3223,-0.573837 0.46086,-0.490291 0.13857,0.08355 0.52954,-0.09242 0.86882,-0.39103 0.33929,-0.298612 1.12786,-0.592355 1.75238,-0.652763 0.62452,-0.06041 1.20849,-0.209665 1.29771,-0.331684 0.26317,-0.359929 1.62214,-0.340382 1.62214,0.02333 0,0.185311 0.3607,0.266459 0.81107,0.18247 0.44608,-0.08319 0.81106,-0.02018 0.81106,0.140032 0,0.16021 0.146,0.203266 0.32443,0.09568 0.17844,-0.107585 0.32443,-0.03637 0.32443,0.15825 0,0.194622 0.10949,0.300659 0.24332,0.235637 0.13383,-0.06502 0.56659,0.211424 0.96169,0.614322 0.3951,0.402899 0.61409,0.737073 0.48664,0.742608 -0.12745,0.0055 -0.0128,0.183568 0.25491,0.395626 0.26766,0.212058 0.49479,0.527985 0.50474,0.70206 0.035,0.612173 0.57098,2.217289 0.79266,2.373753 0.12331,0.08704 0.15824,0.68912 0.0776,1.33796 l -0.14658,1.179711 -5.71978,0.08629 c -5.2202,0.07875 -5.72963,0.136282 -5.8325,0.658654 -0.062,0.3148 -0.004,0.813288 0.12845,1.107751 0.13263,0.294463 0.21798,0.642207 0.18965,0.772763 -0.0283,0.130556 0.1031,0.237375 0.29207,0.237375 0.18896,0 0.2485,0.150066 0.1323,0.333481 -0.23401,0.369393 1.62345,2.260492 1.92824,1.963152 0.10521,-0.102647 0.1913,-0.0052 0.1913,0.216482 0,0.22829 0.21105,0.324105 0.48664,0.220934 0.26766,-0.100199 0.48664,-0.04422 0.48664,0.124388 0,0.168612 0.51098,0.306567 1.1355,0.306567 0.62452,0 1.1355,-0.137955 1.1355,-0.306567 0,-0.168612 0.21899,-0.224587 0.48664,-0.124388 0.26765,0.100198 0.48664,0.01611 0.48664,-0.186863 0,-0.202972 0.13373,-0.288411 0.29717,-0.189864 0.16345,0.09855 0.79792,-0.391536 1.40994,-1.089073 1.27484,-1.452967 2.72168,-1.798423 2.32917,-0.556123 -0.2548,0.806418 -1.80076,2.971829 -2.17082,3.040636 -0.13383,0.02488 -0.39793,0.04524 -0.5869,0.04524 -0.18896,0 -0.25438,0.140794 -0.14536,0.312875 0.11366,0.179411 -0.0166,0.232471 -0.30528,0.124388 -0.27692,-0.103668 -0.50353,-0.06643 -0.50357,0.08275 -9e-5,0.314097 -4.82595,0.375406 -4.94751,0.06285 z m 3.82196,-8.811877 h 3.39662 v -0.791251 c 0,-0.435188 -0.14141,-0.791251 -0.31425,-0.791251 -0.17283,0 -0.23068,-0.212437 -0.12855,-0.472083 0.10587,-0.269157 -0.0372,-0.555509 -0.33274,-0.666164 -0.28515,-0.106746 -0.4449,-0.31018 -0.355,-0.452075 0.23886,-0.377039 -1.50777,-1.62635 -2.01059,-1.438115 -0.23517,0.08804 -0.42757,0.0034 -0.42757,-0.188173 0,-0.486528 -2.61309,-0.113105 -2.96164,0.423233 -0.14999,0.230794 -0.27494,0.298563 -0.27767,0.150599 -0.003,-0.147964 -0.52684,0.240098 -1.16469,0.86236 -0.63785,0.622261 -1.06721,1.277417 -0.95413,1.455901 0.11307,0.178485 0.0556,0.324517 -0.12781,0.324517 -0.18337,0 -0.24936,0.213638 -0.14665,0.474751 0.10271,0.261112 0.0251,0.47475 -0.1724,0.47475 -0.46658,0 -0.4643,1.036811 0.003,1.492973 0.26695,0.260429 0.65415,0.193727 1.46979,-0.2532 0.89537,-0.490602 1.75768,-0.606772 4.504,-0.606772 z m 9.88517,8.804213 c 0,-0.118826 -0.28454,-0.304149 -0.6323,-0.411828 -0.38257,-0.118456 -0.56106,-0.376889 -0.45193,-0.654329 0.0992,-0.252202 0.0553,-0.458461 -0.0977,-0.458355 -0.15292,1.06e-4 -0.27803,-2.670365 -0.27803,-5.934381 V 75.33324 h -1.1355 c -0.99491,0 -1.1355,-0.09796 -1.1355,-0.791251 0,-0.693286 0.14059,-0.791251 1.1355,-0.791251 h 1.1355 l 0.0911,-3.877129 0.0911,-3.877129 h 0.80108 0.80109 v 3.798004 c 0,3.165003 0.0811,3.798004 0.48664,3.798004 0.26765,0 0.48664,0.159036 0.48664,0.353414 0,0.197673 0.28613,0.280418 0.6493,0.187767 0.35712,-0.09111 0.56749,-0.03651 0.4675,0.121336 -0.1,0.157841 -0.0272,0.286984 0.16176,0.286984 0.18897,0 0.34358,0.142425 0.34358,0.3165 0,0.174076 -0.32849,0.321031 -0.72996,0.326566 -0.40148,0.0055 -0.98545,0.199269 -1.29771,0.430518 -0.49933,0.369783 -0.56501,1.007431 -0.54495,5.291315 0.0125,2.678974 0.14827,5.155713 0.30162,5.503864 0.15336,0.34815 0.28909,0.516008 0.30163,0.373018 0.0126,-0.14299 0.25222,-0.03617 0.53262,0.237375 0.28039,0.273547 0.70135,0.497358 0.93546,0.497358 0.2341,0 0.48844,0.320457 0.56519,0.712126 0.12907,0.658726 0.0224,0.712125 -1.42211,0.712125 -0.8589,0 -1.56164,-0.09722 -1.56164,-0.216046 z M 102.76336,73.262112 c 0,-0.181706 -0.25549,-0.288525 -0.56775,-0.237375 -0.50331,0.08244 -0.57829,-0.257232 -0.6606,-2.992879 l -0.0929,-3.085878 h 0.82282 0.82281 v 3.323254 c 0,1.827789 -0.073,3.323253 -0.16221,3.323253 -0.0892,0 -0.16221,-0.148669 -0.16221,-0.330375 z"
         id="path299" />
      <path
         style="fill:#130e10;stroke-width:0.320439"
         d="m 104.87443,88.788128 c -0.11366,-0.179411 0.0166,-0.232471 0.30528,-0.124388 0.56205,0.210407 0.66488,0.437264 0.19821,0.437264 -0.1679,0 -0.39447,-0.140794 -0.50349,-0.312876 z m 63.99103,0.103263 c 0.22305,-0.0878 0.58803,-0.0878 0.81107,0 0.22304,0.0878 0.0405,0.159639 -0.40553,0.159639 -0.44609,0 -0.62858,-0.07184 -0.40554,-0.159639 z m 2.18989,0.02308 c 0.35687,-0.09167 1.0835,-0.304705 1.61473,-0.473418 0.68235,-0.216706 0.8646,-0.207946 0.62085,0.02984 -0.18976,0.185126 -0.91639,0.398164 -1.61473,0.473418 -0.69834,0.07525 -0.97772,0.06182 -0.62085,-0.02984 z m 9.57061,-0.144425 c -0.3554,-0.234623 -0.22415,-0.263987 0.48664,-0.108879 1.1929,0.260312 1.45185,0.441463 0.62182,0.434994 -0.342,-0.0027 -0.84081,-0.149417 -1.10846,-0.326115 z m 4.47003,-0.134207 c 0.76338,-0.232553 1.93132,-0.81904 2.59542,-1.303306 0.90245,-0.658075 1.05321,-0.707834 0.59683,-0.196991 -0.73304,0.820511 -3.07767,1.973816 -3.95269,1.944293 -0.34514,-0.01164 -0.003,-0.211443 0.76044,-0.443996 z m 4.69505,-0.01648 c -0.40148,-0.277062 -0.72997,-0.638098 -0.72997,-0.802303 0,-0.164204 0.29199,-0.0137 0.64886,0.334448 0.40964,0.39963 1.08142,0.633 1.82217,0.633 1.0766,0 1.16054,-0.06522 1.01827,-0.791251 -0.0853,-0.435188 -0.0196,-0.79125 0.14594,-0.79125 0.16555,0 0.2548,0.391669 0.19834,0.870376 -0.0877,0.743557 -0.26811,0.883515 -1.23816,0.960552 -0.65402,0.05194 -1.44501,-0.123422 -1.86545,-0.413572 z m 7.21851,0.150366 c -0.45222,-0.199878 -0.25559,-0.22837 0.64885,-0.09402 0.71374,0.106024 1.35854,0.24509 1.43289,0.309034 0.27874,0.239739 -1.45894,0.06026 -2.08174,-0.215016 z m 4.7042,0.151319 c 1.44607,-0.553219 2.39695,-0.765826 2.09123,-0.467575 -0.17994,0.175542 -0.83357,0.394447 -1.45252,0.486457 -0.61894,0.09201 -0.90637,0.08351 -0.63871,-0.01888 z m 8.82237,-2.694696 -0.0628,-3.032908 1.27868,-1.002472 c 0.70328,-0.551359 1.35511,-1.002472 1.44851,-1.002472 0.0934,0 0.32901,0.320457 0.52357,0.712126 0.33327,0.670921 0.32541,0.677736 -0.13579,0.11779 -0.4734,-0.574763 -0.52474,-0.565484 -1.55893,0.281743 -1.04191,0.853557 -1.07404,0.954266 -1.24989,3.917589 l -0.18049,3.041511 z m 9.85307,2.334431 c -0.17606,-0.451076 -0.1388,-0.48743 0.18161,-0.177175 0.22172,0.214693 0.3214,0.470079 0.22151,0.567525 -0.0999,0.09745 -0.28129,-0.07821 -0.40312,-0.39035 z m 5.7439,0.320894 c 0.31566,-0.08025 0.75364,-0.07497 0.97328,0.01173 0.21965,0.0867 -0.0386,0.152353 -0.57392,0.145903 -0.5353,-0.0065 -0.71502,-0.07738 -0.39936,-0.157631 z m 2.26482,0.0012 c 0.31226,-0.07961 0.82323,-0.07961 1.13549,0 0.31227,0.07961 0.0568,0.144743 -0.56774,0.144743 -0.62453,0 -0.88001,-0.06513 -0.56775,-0.144743 z m 12.24473,-0.0064 c 0.9968,-0.09843 1.30012,-0.263807 1.30012,-0.708871 0,-0.36221 -0.31938,-0.658692 -0.84935,-0.788457 -1.11339,-0.272614 -0.87341,-0.487013 0.29917,-0.267285 0.75634,0.141729 0.89311,0.310475 0.81107,1.000678 -0.0885,0.745031 -0.24038,0.833386 -1.4799,0.861246 l -1.38123,0.03105 1.30012,-0.128368 z M 163.4313,77.232241 V 65.679979 h 1.1355 1.13549 l -0.0717,4.82663 -0.0717,4.82663 -0.0992,-4.66838 -0.0991,-4.66838 h -0.80239 -0.8024 v 11.235762 c 0,11.67744 0.0317,11.942002 1.29828,10.840137 0.38689,-0.33657 0.39065,-0.312948 0.0252,0.15825 -0.2363,0.304631 -0.70374,0.553875 -1.03876,0.553875 -0.58476,0 -0.60913,-0.462127 -0.60913,-11.552262 z m 3.33593,10.593885 c -0.68845,-0.656649 -1.05727,-0.831027 -1.17147,-0.553875 -0.11626,0.282154 -0.17441,0.290489 -0.19228,0.02755 -0.0528,-0.777068 0.50567,-0.642249 1.67681,0.404792 0.66434,0.593948 1.09176,1.079906 0.94982,1.079906 -0.14194,0 -0.71023,-0.43127 -1.26288,-0.958377 z m 57.51293,0.671393 c -0.1,-0.157841 0.11037,-0.212442 0.46749,-0.121336 0.75754,0.193259 0.85329,0.40832 0.18181,0.40832 -0.25712,0 -0.54931,-0.129143 -0.6493,-0.286984 z m 6.01024,0.171606 c 0.0743,-0.06346 0.50016,-0.284954 0.94625,-0.492211 0.76476,-0.355318 0.77512,-0.34873 0.18131,0.115379 -0.51681,0.403935 -1.57278,0.756841 -1.12756,0.376832 z m 7.92374,-0.197497 c -0.11366,-0.179411 0.0166,-0.232472 0.30528,-0.124388 0.56204,0.210407 0.66488,0.437263 0.19821,0.437263 -0.1679,0 -0.39448,-0.140794 -0.50349,-0.312875 z m -59.18677,-0.837559 c -0.36982,-0.458663 -0.66797,-0.992758 -0.66254,-1.186876 0.005,-0.194118 0.17186,-0.06809 0.36984,0.280058 0.19799,0.34815 0.58116,0.882245 0.85149,1.186876 0.27033,0.304632 0.40648,0.553876 0.30256,0.553876 -0.10392,0 -0.49153,-0.37527 -0.86135,-0.833934 z m 16.15266,0.182149 -0.7659,-0.651785 0.89217,0.529935 c 0.4907,0.291465 0.89218,0.584768 0.89218,0.651785 0,0.247138 -0.27106,0.106098 -1.01845,-0.529935 z m -20.72305,-0.45823 c 1.292,-1.518011 1.40071,-1.615915 1.0479,-0.943696 -0.18375,0.350098 -0.67609,0.91878 -1.0941,1.263737 -0.73324,0.605101 -0.73161,0.593828 0.0462,-0.320041 z m 30.33883,0.160514 c 0.32296,-0.34815 0.6602,-0.633001 0.74942,-0.633001 0.0892,0 -0.10203,0.284851 -0.42499,0.633001 -0.32297,0.34815 -0.66021,0.633001 -0.74943,0.633001 -0.0892,0 0.10203,-0.284851 0.425,-0.633001 z m 12.10251,-0.07913 c -0.25441,-0.391669 -0.79061,-1.281827 -1.19156,-1.978127 -0.85764,-1.489397 0.0788,-0.329915 1.19236,1.476373 0.79041,1.282104 0.78972,1.718755 -6.5e-4,0.501754 z m 5.83873,-0.15825 c -1.08637,-1.132774 -1.89061,-2.709184 -1.84887,-3.624037 0.0272,-0.594804 0.0761,-0.554288 0.26809,0.221658 0.3219,1.301246 0.9217,2.370935 1.90782,3.402379 0.45767,0.478706 0.75912,0.870376 0.66991,0.870376 -0.0892,0 -0.53785,-0.39167 -0.99695,-0.870376 z M 106.89981,87.62539 c 0.22304,-0.0878 0.58802,-0.0878 0.81107,0 0.22304,0.0878 0.0405,0.159638 -0.40554,0.159638 -0.44609,0 -0.62858,-0.07184 -0.40553,-0.159638 z M 232.9234,86.885501 c 0.45835,-0.609263 0.93314,-1.428208 1.05509,-1.819877 0.38636,-1.240849 -1.0321,-0.880055 -2.48864,0.633001 -1.11529,1.158567 -1.15514,1.178987 -0.2874,0.147237 0.55412,-0.658839 1.00748,-1.335358 1.00748,-1.503376 0,-0.168018 0.51098,-0.305488 1.1355,-0.305488 0.62452,0 1.13549,0.156507 1.13549,0.347793 0,0.640994 -1.01213,2.437135 -1.70504,3.025811 -0.55248,0.469361 -0.5238,0.367261 0.14752,-0.525101 z m -64.54458,0.323556 c -1.08677,-0.451344 -0.88269,-0.659068 0.26429,-0.268999 1.41046,0.479677 3.15873,0.113801 4.32834,-0.905832 l 1.00374,-0.875037 -1.01492,1.055945 c -0.78656,0.818345 -1.33405,1.083074 -2.43321,1.176512 -0.78005,0.06631 -1.74676,-0.01585 -2.14824,-0.182589 z m 13.17525,-0.34234 -0.7659,-0.651785 0.90283,0.536742 c 0.68503,0.407265 1.35025,0.495408 2.75763,0.365393 1.12871,-0.104272 1.6008,-0.06794 1.20595,0.0928 -1.25875,0.512437 -3.29539,0.342003 -4.10051,-0.343147 z m 9.60244,0.314228 c -0.33288,-0.525456 -0.0341,-0.59832 0.43167,-0.105272 0.23008,0.243556 0.27519,0.442829 0.10025,0.442829 -0.17494,0 -0.4143,-0.151901 -0.53192,-0.337557 z m 7.24396,0.07794 c -0.30561,-0.118321 0.45541,-0.21513 1.69114,-0.21513 1.23573,0 1.99675,0.09681 1.69114,0.21513 -0.30561,0.118322 -1.06662,0.21513 -1.69114,0.21513 -0.62452,0 -1.38554,-0.09681 -1.69114,-0.21513 z m 28.86573,0.03577 c 0.40355,-0.0757 0.98752,-0.07283 1.29771,0.0064 0.31018,0.07922 -0.02,0.141157 -0.73375,0.137645 -0.71374,-0.0035 -0.96752,-0.06833 -0.56396,-0.144032 z m -117.68987,-0.52865 c 0,-0.06572 0.25549,-0.314967 0.56775,-0.553876 0.51456,-0.393685 0.52604,-0.382491 0.12249,0.119497 -0.42382,0.527209 -0.69024,0.69487 -0.69024,0.434379 z m 76.88932,0.0319 c 0,-0.06043 0.47448,-0.448723 1.05439,-0.862884 0.65246,-0.465969 0.87906,-0.542396 0.59443,-0.200491 -0.43204,0.518991 -1.64882,1.30373 -1.64882,1.063375 z m 7.57379,-0.400806 c -0.10566,-0.268621 -0.11962,-0.55912 -0.031,-0.645554 0.0886,-0.08644 0.23896,0.133345 0.33414,0.4884 0.20217,0.754198 -0.0224,0.870658 -0.30311,0.157154 z m 9.13423,-0.1446 c 0.32296,-0.348151 0.6602,-0.633001 0.74942,-0.633001 0.0892,0 -0.10203,0.28485 -0.42499,0.633001 -0.32297,0.34815 -0.66021,0.633 -0.74942,0.633 -0.0892,0 0.10203,-0.28485 0.42499,-0.633 z m 15.85843,0.237375 c -0.13147,-0.217594 -0.44747,-0.751688 -0.70223,-1.186876 -0.44471,-0.759671 -0.44146,-0.765987 0.0814,-0.158251 0.65896,0.765875 1.227,1.740752 1.0143,1.740752 -0.085,0 -0.26205,-0.178031 -0.39351,-0.395625 z m 18.4416,-5.202203 -0.0729,-5.756078 -1.05439,-0.127651 -1.05439,-0.127652 1.06457,-0.05065 c 0.60999,-0.02902 1.13289,0.123035 1.22457,0.356093 0.088,0.223709 0.11623,2.894181 0.0627,5.934381 l -0.0973,5.527636 z m -31.6296,4.622957 c 0.11472,-0.427973 0.26178,-0.571441 0.34277,-0.334399 0.078,0.228336 -0.0124,0.565636 -0.20092,0.749555 -0.24074,0.234865 -0.28297,0.111293 -0.14185,-0.415156 z m -15.02882,-4.722135 c 0,-2.87224 0.0492,-4.047248 0.1093,-2.611128 0.0601,1.436121 0.0601,3.786136 0,5.222256 -0.0601,1.43612 -0.1093,0.261113 -0.1093,-2.611128 z m 5.37669,4.581607 c -0.22571,-0.26532 -0.34755,-0.543693 -0.27076,-0.618607 0.0768,-0.07491 0.31782,0.142165 0.53562,0.482399 0.47101,0.735775 0.31393,0.816558 -0.26486,0.136208 z m -18.07962,-0.941853 c 0.004,-0.696301 0.07,-0.943884 0.14764,-0.550185 0.0776,0.393698 0.0747,0.963399 -0.007,1.266001 -0.0812,0.302602 -0.14469,-0.01951 -0.14109,-0.715816 z m 61.36706,-3.956254 c 0,-2.872241 0.0492,-4.047248 0.1093,-2.611128 0.0601,1.43612 0.0601,3.786135 0,5.222256 -0.0601,1.43612 -0.1093,0.261112 -0.1093,-2.611128 z m -73.60657,3.813721 c -0.3381,-0.637842 -0.47724,-1.716148 -0.43902,-3.402378 l 0.0559,-2.468595 0.18738,2.690253 c 0.10305,1.479639 0.37499,3.010709 0.60431,3.402378 0.22933,0.391669 0.34257,0.712126 0.25166,0.712126 -0.0909,0 -0.38804,-0.420203 -0.66027,-0.933784 z m 9.89664,0.775534 c 0,-0.174075 0.14152,-0.530138 0.31449,-0.791251 0.17298,-0.261113 0.31449,-0.332325 0.31449,-0.15825 0,0.174075 -0.14151,0.530138 -0.31449,0.791251 -0.17297,0.261112 -0.31449,0.332325 -0.31449,0.15825 z m 47.82978,-0.179308 c -0.11761,-0.185656 -0.14426,-0.405436 -0.0592,-0.4884 0.085,-0.08296 0.24107,0.06894 0.34673,0.337557 0.21937,0.557708 0.0324,0.655807 -0.28751,0.150843 z m -43.23448,-0.770193 c 0.007,-0.522226 0.0793,-0.697547 0.16158,-0.389602 0.0822,0.307944 0.0768,0.73522 -0.012,0.949501 -0.0889,0.214281 -0.15615,-0.03767 -0.14954,-0.559899 z m 13.27591,0.237375 c -0.0322,-0.609851 0.12545,-0.712126 1.09786,-0.712126 0.62453,0 1.1355,0.117758 1.1355,0.261685 0,0.143927 -0.42446,0.200909 -0.94325,0.126628 -0.71611,-0.102534 -0.98048,0.0059 -1.09786,0.45044 -0.12664,0.479573 -0.16142,0.456664 -0.19225,-0.126627 z m 10.38823,-0.0542 c -0.0243,-0.421481 -0.29425,-1.062394 -0.59989,-1.424251 -0.54156,-0.641179 -0.53671,-0.640887 0.19052,0.01148 0.50449,0.452553 0.69882,0.913933 0.59989,1.424251 l -0.14634,0.754847 z m -30.206,0.133329 c 0,-0.174075 0.14152,-0.530138 0.31449,-0.791251 0.17297,-0.261113 0.31449,-0.332325 0.31449,-0.15825 0,0.174075 -0.14152,0.530138 -0.31449,0.791251 -0.17297,0.261113 -0.31449,0.332325 -0.31449,0.15825 z m 15.01094,-2.057252 c 0,-0.957414 0.0608,-1.349083 0.13516,-0.870376 0.0743,0.478707 0.0743,1.262045 0,1.740752 -0.0743,0.478707 -0.13516,0.08704 -0.13516,-0.870376 z M 113.52069,83.404 c 0,-0.435188 0.0736,-0.61322 0.16364,-0.395626 0.09,0.217594 0.09,0.573657 0,0.791251 -0.09,0.217594 -0.16364,0.03956 -0.16364,-0.395625 z m 62.95096,-0.158251 c 0.007,-0.522225 0.0793,-0.697546 0.16158,-0.389601 0.0823,0.307944 0.0768,0.735219 -0.012,0.949501 -0.0889,0.21428 -0.15615,-0.03767 -0.14954,-0.5599 z M 214.36642,83.404 c -0.19099,-0.348151 -0.27426,-0.633001 -0.18504,-0.633001 0.0892,0 0.31848,0.28485 0.50947,0.633001 0.19099,0.34815 0.27426,0.633 0.18504,0.633 -0.0892,0 -0.31848,-0.28485 -0.50947,-0.633 z m -39.79337,-2.373753 c 0.001,-1.392601 0.0582,-1.922931 0.12675,-1.17851 0.0685,0.744421 0.0676,1.883822 -0.002,2.532003 -0.0696,0.64818 -0.12565,0.03911 -0.12448,-1.353493 z m 6.94727,1.503377 c 0.42018,-0.39167 0.93831,-0.707795 1.1514,-0.702502 0.21309,0.0053 0.0955,0.167656 -0.26141,0.360805 -0.35687,0.19315 -0.875,0.509275 -1.1514,0.702502 -0.27639,0.193226 -0.15876,0.03087 0.26141,-0.360805 z m 24.24695,0.163583 c -0.17744,-0.394603 -0.97401,-1.037916 -1.77017,-1.429585 -0.79616,-0.391669 -1.26338,-0.712125 -1.03828,-0.712125 1.12512,0 3.48301,1.829095 3.24727,2.519021 -0.0639,0.187081 -0.26139,0.01729 -0.43882,-0.377311 z m 17.16517,-0.242708 0.0313,-0.791251 5.73858,-0.08635 5.73859,-0.08635 0.1303,-1.021402 c 0.12715,-0.996755 0.13154,-0.992762 0.18221,0.165474 l 0.0519,1.186876 h -5.81814 c -5.77766,0 -5.81908,0.005 -5.95211,0.712126 -0.11656,0.619623 -0.1299,0.609345 -0.10266,-0.07912 z M 111.60472,81.663246 c 0.004,-0.696301 0.07,-0.943884 0.14763,-0.550186 0.0776,0.393699 0.0747,0.9634 -0.007,1.266002 -0.0812,0.302602 -0.1447,-0.01952 -0.14109,-0.715816 z m 89.29796,0.621107 c -1.28492,-0.433678 -1.28652,-0.436201 -0.16222,-0.255853 0.62453,0.100179 1.35449,0.303892 1.62214,0.452696 0.7143,0.39712 0.0242,0.304074 -1.45992,-0.196843 z M 179.72327,81.42587 c 0.50211,-0.478706 1.09311,-0.866044 1.31334,-0.860751 0.22023,0.0053 0.10843,0.167169 -0.24844,0.359724 -0.35687,0.192555 -0.94787,0.579894 -1.31334,0.860752 -0.36546,0.280858 -0.25367,0.118982 0.24844,-0.359725 z m 35.76659,-0.3165 c -0.50014,-0.739819 -0.70203,-1.178045 -0.44864,-0.973835 0.48723,0.392679 1.72944,2.318962 1.49543,2.318962 -0.0756,0 -0.54665,-0.605307 -1.04679,-1.345127 z m 5.09191,0.395626 c 0,-0.435188 0.0736,-0.61322 0.16363,-0.395626 0.09,0.217594 0.09,0.573657 0,0.791251 -0.09,0.217594 -0.16363,0.03956 -0.16363,-0.395625 z m -43.76058,-0.949501 c 0,-0.783339 0.0633,-1.103795 0.1406,-0.712126 0.0773,0.391669 0.0773,1.032582 0,1.424251 -0.0773,0.391669 -0.1406,0.07121 -0.1406,-0.712125 z m 7.13632,1.046669 c 0.31566,-0.08025 0.75364,-0.07497 0.97329,0.01173 0.21964,0.0867 -0.0386,0.152353 -0.57393,0.145903 -0.5353,-0.0065 -0.71501,-0.07738 -0.39936,-0.15763 z m 13.25978,-0.143756 c -0.59948,-0.168299 -1.02702,-0.367409 -0.95008,-0.442468 0.0769,-0.07506 0.78641,0.06141 1.57661,0.303252 1.61339,0.493791 1.06808,0.614962 -0.62653,0.139216 z m -11.69788,-0.06687 c 0.0743,-0.0624 0.71914,-0.200787 1.43288,-0.30753 0.88374,-0.132166 1.14247,-0.09752 0.81107,0.108606 -0.44326,0.275702 -2.5589,0.463251 -2.24395,0.198924 z m 22.75806,-7.719931 -0.0752,-7.991633 1.2166,0.05065 c 1.1898,0.04954 1.1935,0.05346 0.16784,0.177895 l -1.04877,0.127242 -0.0927,7.813739 -0.0927,7.81374 z m 15.55385,7.009616 c 0.29074,-0.283639 0.68418,-0.463569 0.87431,-0.399845 0.19013,0.06372 -0.0478,0.295792 -0.52862,0.515707 -0.80803,0.369532 -0.83424,0.360748 -0.34569,-0.115862 z m -28.90877,-0.57786 c -0.40709,-0.422745 -0.66305,-0.956839 -0.5688,-1.186876 0.13297,-0.324532 0.17711,-0.316443 0.19698,0.0361 0.0141,0.249894 0.34304,0.783988 0.73102,1.186876 0.38797,0.402889 0.63241,0.732525 0.54319,0.732525 -0.0892,0 -0.49529,-0.345882 -0.90239,-0.768627 z m -81.40186,-0.180874 c 0,-0.435188 0.0736,-0.61322 0.16364,-0.395626 0.09,0.217594 0.09,0.573657 0,0.791251 -0.09,0.217594 -0.16364,0.03956 -0.16364,-0.395625 z m 68.49026,0.413669 c 0.31566,-0.08025 0.75363,-0.07497 0.97328,0.01173 0.21965,0.0867 -0.0386,0.152353 -0.57392,0.145903 -0.53531,-0.0065 -0.71502,-0.07738 -0.39936,-0.157631 z m 19.64197,0.0031 c 0.23419,-0.09143 0.51401,-0.08018 0.62182,0.02499 0.1078,0.10517 -0.0838,0.179975 -0.42581,0.166232 -0.37795,-0.01519 -0.45482,-0.09018 -0.19601,-0.191219 z m 21.19984,-0.416802 c 0,-0.435188 0.0736,-0.61322 0.16364,-0.395626 0.09,0.217594 0.09,0.573657 0,0.791251 -0.09,0.217594 -0.16364,0.03956 -0.16364,-0.395625 z m -38.57082,0.09717 c 0.31566,-0.08025 0.75364,-0.07497 0.97328,0.01173 0.21965,0.0867 -0.0386,0.152353 -0.57392,0.145902 -0.5353,-0.0065 -0.71502,-0.07738 -0.39936,-0.15763 z m 15.16081,-0.09717 c -0.65201,-0.203709 -0.68382,-0.255227 -0.16221,-0.262707 0.35687,-0.0051 0.94084,0.113102 1.29771,0.262707 0.82671,0.346571 -0.0262,0.346571 -1.1355,0 z m -13.22042,-0.218172 c 0.31226,-0.07961 0.82324,-0.07961 1.1355,0 0.31226,0.07961 0.0568,0.144743 -0.56775,0.144743 -0.62452,0 -0.88001,-0.06513 -0.56775,-0.144743 z m 46.05085,-0.573079 c 0.007,-0.522226 0.0793,-0.697546 0.16158,-0.389602 0.0822,0.307945 0.0768,0.73522 -0.012,0.949501 -0.0889,0.214281 -0.15615,-0.03767 -0.14954,-0.559899 z m -43.87886,-0.05832 c 0.48587,-0.981192 0.42434,-2.049387 -0.17031,-2.957137 l -0.51264,-0.782549 0.67485,0.747189 c 0.79953,0.88523 0.87323,2.213517 0.17031,3.069447 -0.48738,0.593477 -0.49289,0.59086 -0.16221,-0.07695 z m 28.71255,-1.907874 c 2.52363,-2.549263 2.55786,-2.605116 1.78176,-2.907566 -0.43521,-0.169606 -0.57231,-0.315221 -0.30465,-0.323589 0.26765,-0.0084 0.70563,0.121516 0.97328,0.288632 0.39286,0.245293 -0.0443,0.808538 -2.2684,2.922781 l -2.75504,2.618935 z m 3.79932,1.807942 c 0,-0.435188 0.0736,-0.61322 0.16364,-0.395626 0.09,0.217594 0.09,0.573657 0,0.791251 -0.09,0.217594 -0.16364,0.03956 -0.16364,-0.395625 z m -44.44657,-0.633001 c 0,-0.435188 0.0736,-0.613219 0.16364,-0.395625 0.09,0.217594 0.09,0.573657 0,0.791251 -0.09,0.217594 -0.16364,0.03956 -0.16364,-0.395626 z m 57.72249,0.131875 c 0.0156,-0.368704 0.0924,-0.443701 0.19601,-0.191219 0.0937,0.228474 0.0822,0.501456 -0.0256,0.606626 -0.1078,0.10517 -0.18448,-0.08176 -0.1704,-0.415407 z m -68.46988,0.02638 c 0,-0.174075 0.14152,-0.530138 0.31449,-0.791251 0.17297,-0.261112 0.31449,-0.332325 0.31449,-0.15825 0,0.174076 -0.14152,0.530138 -0.31449,0.791251 -0.17297,0.261113 -0.31449,0.332326 -0.31449,0.15825 z m 47.52642,-0.131596 c 0.34642,-0.598741 4.00572,-3.950259 4.48237,-4.105364 0.20697,-0.06735 0.29932,-0.06735 0.20521,0 -0.0941,0.06735 -1.24564,1.119432 -2.55897,2.337958 -1.31333,1.218527 -2.2712,2.013859 -2.12861,1.767406 z m -19.24792,-0.817905 c 0.007,-0.522225 0.0793,-0.697546 0.16158,-0.389601 0.0823,0.307944 0.0769,0.735219 -0.012,0.949501 -0.0888,0.21428 -0.15615,-0.03767 -0.14954,-0.5599 z m -20.02888,0.137193 c -0.11761,-0.185656 -0.14426,-0.405437 -0.0592,-0.4884 0.085,-0.08296 0.24107,0.06894 0.34673,0.337557 0.21937,0.557708 0.0324,0.655807 -0.28751,0.150843 z m 5.14956,-0.819599 c 0.17751,-1.067177 1.60231,-2.957348 2.22922,-2.957348 0.14786,0 -0.19604,0.405224 -0.76422,0.900497 -0.78747,0.686405 -1.03936,1.175294 -1.05951,2.056321 -0.0145,0.635703 -0.15503,1.156243 -0.31221,1.156755 -0.15717,5.07e-4 -0.19915,-0.519788 -0.0933,-1.156225 z m 42.06799,1.000339 c 0,-0.346463 1.60304,-3.008186 1.8117,-3.008186 0.0892,0 -0.2349,0.67652 -0.72027,1.503377 -1.04582,1.781631 -1.09143,1.844528 -1.09143,1.504809 z m 2.27099,-0.141004 c 0,-0.163802 0.14432,-0.384836 0.32071,-0.491189 0.18391,-0.110882 0.23829,0.01616 0.12751,0.297822 -0.21568,0.54831 -0.44822,0.648632 -0.44822,0.193367 z m 8.29376,-0.242404 c -0.17606,-0.451075 -0.1388,-0.48743 0.18161,-0.177175 0.22172,0.214693 0.3214,0.470079 0.22152,0.567526 -0.0999,0.09745 -0.2813,-0.07821 -0.40313,-0.390351 z m -51.74001,0.141227 c 0.0743,-0.04537 0.50016,-0.36583 0.94625,-0.712125 l 0.81106,-0.629628 -0.61803,0.712126 c -0.33991,0.391669 -0.76572,0.712125 -0.94624,0.712125 -0.18052,0 -0.26739,-0.03712 -0.19304,-0.0825 z m 53.7058,-0.404488 c -0.31307,-0.795901 -0.22072,-1.001266 0.16173,-0.359651 0.18937,0.317688 0.27596,0.644287 0.19243,0.725776 -0.0835,0.08149 -0.24291,-0.08327 -0.35416,-0.366125 z m -57.77193,-0.412564 c -0.36831,-1.132093 -1.56106,-2.333312 -2.9106,-2.931265 -0.72776,-0.322458 -1.13112,-0.589415 -0.89635,-0.593238 0.59027,-0.0096 1.69884,0.576705 2.60492,1.377726 0.83237,0.735861 1.81292,2.381761 1.56375,2.624841 -0.0861,0.08398 -0.24885,-0.131149 -0.36172,-0.478064 z m 28.9389,0.373438 c 0.22305,-0.0878 0.58803,-0.0878 0.81107,0 0.22305,0.0878 0.0406,0.159638 -0.40553,0.159638 -0.44609,0 -0.62858,-0.07184 -0.40554,-0.159638 z M 167,76.28274 c 0.41908,-0.435188 0.83496,-0.791251 0.92418,-0.791251 0.0892,0 -0.18067,0.356063 -0.59975,0.791251 -0.41908,0.435188 -0.83496,0.791251 -0.92417,0.791251 -0.0892,0 0.18066,-0.356063 0.59974,-0.791251 z m 35.9869,-0.07913 -0.78651,-0.870376 0.97328,0.791251 c 0.53531,0.435188 1.03411,0.826857 1.10846,0.870376 0.0744,0.04352 -0.01,0.07913 -0.18677,0.07913 -0.17707,0 -0.67587,-0.391669 -1.10846,-0.870376 z m -29.86416,0 c -0.40354,-0.501987 -0.39207,-0.513182 0.12249,-0.119496 0.54042,0.413466 0.71228,0.673371 0.44526,0.673371 -0.0674,0 -0.32285,-0.249244 -0.56775,-0.553875 z m 32.18532,0.182596 c -0.0141,-0.291241 -0.4988,-0.991155 -1.07714,-1.555365 -0.67974,-0.663129 -0.81069,-0.900093 -0.37037,-0.670199 0.85595,0.446898 1.83821,1.880227 1.63017,2.378768 -0.0881,0.211096 -0.16829,0.143831 -0.18266,-0.153204 z M 230.2965,75.93913 c -0.60631,-0.42028 -0.94293,-0.764146 -0.74806,-0.764146 0.19488,0 0.76394,0.351562 1.26458,0.781249 1.14652,0.984016 0.91673,0.976407 -0.51652,-0.0171 z m -36.04337,0.288763 c -0.002,-0.521413 1.59988,-2.320922 2.05529,-2.309286 0.20719,0.0053 0.11127,0.160223 -0.21314,0.344287 -0.32441,0.184065 -0.87134,0.785041 -1.21539,1.335502 -0.34405,0.550462 -0.6261,0.833735 -0.62676,0.629497 z m 2.87346,-0.401124 c 0.42125,-0.358482 0.92006,-0.651785 1.10847,-0.651785 0.39895,0 0.37989,0.01581 -0.90108,0.747577 l -0.97329,0.555993 z m -15.20292,0.17822 c 0,-0.06572 0.25549,-0.314968 0.56775,-0.553876 0.51456,-0.393686 0.52603,-0.382491 0.12249,0.119496 -0.42382,0.52721 -0.69024,0.69487 -0.69024,0.43438 z m -76.75793,-0.90913 -0.61803,-0.712126 0.72996,0.602929 c 0.68598,0.566605 0.87766,0.821322 0.61803,0.821322 -0.0616,0 -0.39004,-0.320456 -0.72996,-0.712125 z m 66.70068,0.395625 c -0.29241,-0.184349 -0.33242,-0.308742 -0.10026,-0.311654 0.21251,-0.0027 0.47662,0.137579 0.5869,0.311654 0.24893,0.392943 0.13662,0.392943 -0.48664,0 z m 17.78309,-0.702297 c -0.47932,-0.484112 -0.76025,-0.880205 -0.6243,-0.880205 0.30785,0 1.81927,1.546577 1.63224,1.670208 -0.0751,0.04961 -0.52862,-0.30589 -1.00794,-0.790003 z m 51.40107,0.475603 c 0.4907,-0.07252 0.89218,-0.252948 0.89218,-0.400954 0,-0.148007 -0.40148,-0.412153 -0.89218,-0.586991 -0.4907,-0.174839 -0.70009,-0.329133 -0.46531,-0.342876 0.70101,-0.04103 1.68191,0.596931 1.68191,1.0939 0,0.32178 -0.32257,0.449107 -1.05438,0.416193 -0.98138,-0.04414 -0.99261,-0.05655 -0.16222,-0.179272 z m -74.21279,-0.722807 c 0.32296,-0.34815 0.6602,-0.633001 0.74942,-0.633001 0.0892,0 -0.10203,0.284851 -0.42499,0.633001 -0.32297,0.34815 -0.66021,0.633001 -0.74942,0.633001 -0.0892,0 0.10203,-0.284851 0.42499,-0.633001 z m 2.68031,0.409152 c 0.40356,-0.0757 0.98753,-0.07283 1.29771,0.0064 0.31018,0.07922 -0.02,0.141158 -0.73375,0.137645 -0.71374,-0.0035 -0.96752,-0.06833 -0.56396,-0.144032 z m 13.96688,0.0076 c 0.23419,-0.09143 0.51401,-0.08018 0.62182,0.02499 0.1078,0.10517 -0.0838,0.179975 -0.42581,0.166232 -0.37795,-0.01519 -0.45482,-0.09018 -0.19601,-0.191219 z m 2.09467,-0.0031 c 0.31566,-0.08025 0.75364,-0.07497 0.97328,0.01173 0.21965,0.0867 -0.0386,0.152353 -0.57392,0.145903 -0.5353,-0.0065 -0.71502,-0.07738 -0.39936,-0.157631 z m 13.78578,-0.0045 c 0.40356,-0.0757 0.98753,-0.07283 1.29771,0.0064 0.31018,0.07922 -0.02,0.141158 -0.73374,0.137645 -0.71375,-0.0035 -0.96753,-0.06833 -0.56397,-0.144032 z m 28.0592,0.0057 c 0.31226,-0.07961 0.82323,-0.07961 1.13549,0 0.31226,0.07961 0.0568,0.144743 -0.56775,0.144743 -0.62452,0 -0.88001,-0.06513 -0.56774,-0.144743 z m 4.74392,-0.335699 c -0.40355,-0.501987 -0.39207,-0.513182 0.12249,-0.119496 0.31226,0.238908 0.56775,0.488152 0.56775,0.553876 0,0.26049 -0.26642,0.09283 -0.69024,-0.43438 z m -8.32035,-0.262291 c 0.30801,-0.313723 0.62986,-0.50228 0.71521,-0.419014 0.0854,0.08326 -0.16666,0.339948 -0.56003,0.570406 -0.68334,0.400347 -0.69026,0.393603 -0.15518,-0.151392 z M 106.90359,74.001639 c 0.40356,-0.0757 0.98753,-0.07283 1.29771,0.0064 0.31018,0.07922 -0.02,0.141159 -0.73374,0.137646 -0.71374,-0.0035 -0.96753,-0.06833 -0.56397,-0.144033 z m 79.88649,-0.409152 c -1.12265,-0.230535 -1.12449,-0.233588 -0.16221,-0.269989 0.5353,-0.02025 1.19227,0.101245 1.45992,0.269989 0.54019,0.340569 0.36079,0.340569 -1.29771,0 z m 14.43703,0 -1.29771,-0.226674 1.13549,-0.04007 c 0.62452,-0.02204 1.35449,0.098 1.62214,0.266741 0.53085,0.334677 0.4561,0.334677 -1.45992,0 z m 24.16984,0.0044 c 0.26766,-0.171167 0.83946,-0.313393 1.27068,-0.316058 1.04129,-0.0064 0.77737,0.173525 -0.62182,0.423999 -0.79888,0.143011 -0.99123,0.111012 -0.64886,-0.107941 z m 11.03054,0.133793 0.97328,-0.178303 v -3.936202 -3.936199 h 1.1355 1.13549 l -0.0701,4.035379 -0.0701,4.035379 -0.10205,-3.877129 c -0.1019,-3.871285 -0.10325,-3.877129 -0.89315,-3.877129 -0.7905,0 -0.79117,0.0029 -0.88219,3.877129 l -0.0911,3.877129 -1.05439,0.07913 c -1.0395,0.07801 -1.04065,0.07661 -0.0811,-0.09918 z M 103.08778,70.269234 c 0,-3.320779 -5.9e-4,-3.323254 -0.79932,-3.323254 -0.78757,0 -0.80088,0.04537 -0.90538,3.085878 l -0.10606,3.085879 -0.0679,-3.244129 -0.0679,-3.244128 h 1.1355 1.13549 v 3.481503 c 0,1.914827 -0.073,3.481504 -0.16221,3.481504 -0.0892,0 -0.16222,-1.495464 -0.16222,-3.323253 z m 65.79796,3.107047 c 0.23419,-0.09143 0.51401,-0.08018 0.62182,0.02499 0.1078,0.105171 -0.0838,0.179975 -0.42581,0.166232 -0.37794,-0.01518 -0.45482,-0.09018 -0.19601,-0.191219 z m 14.09849,-0.0031 c 0.31566,-0.08025 0.75364,-0.07497 0.97328,0.01173 0.21965,0.0867 -0.0386,0.152353 -0.57392,0.145903 -0.5353,-0.0065 -0.71502,-0.07738 -0.39936,-0.15763 z m 15.08349,-0.0045 c 0.40356,-0.0757 0.98753,-0.07283 1.29771,0.0064 0.31018,0.07922 -0.02,0.141158 -0.73374,0.137646 -0.71375,-0.0035 -0.96753,-0.06833 -0.56397,-0.144033 z m 31.14126,0.01424 c 0.22304,-0.0878 0.58802,-0.0878 0.81107,0 0.22304,0.0878 0.0405,0.159638 -0.40554,0.159638 -0.44609,0 -0.62858,-0.07184 -0.40553,-0.159638 z m -58.87742,-0.32622 c 0.31566,-0.08025 0.75363,-0.07497 0.97328,0.01173 0.21965,0.0867 -0.0386,0.152353 -0.57392,0.145903 -0.53531,-0.0065 -0.71502,-0.07738 -0.39936,-0.157631 z"
         id="path297" />
    </g>
  </g>
</svg>
