<?xml version="1.0" encoding="UTF-8" ?>
<!DOCTYPE svg PUBLIC "-//W3C//DTD SVG 1.1//EN" "http://www.w3.org/Graphics/SVG/1.1/DTD/svg11.dtd">
<svg width="800pt" height="100pt" viewBox="0 0 800 100" version="1.1" xmlns="http://www.w3.org/2000/svg">
<g id="#3fad2fff">
<path fill="#3fad2f" opacity="1.00" d=" M 59.68 0.00 L 130.44 0.00 C 135.80 1.02 140.43 5.49 141.10 10.98 C 141.54 15.25 140.26 19.43 139.43 23.57 C 134.01 47.66 129.47 71.94 123.53 95.91 C 115.28 96.09 107.03 96.05 98.78 95.90 C 102.98 71.64 109.14 47.78 113.64 23.59 C 102.51 23.36 91.35 22.68 80.25 23.85 C 74.58 46.04 70.56 68.59 65.49 90.91 C 65.06 92.50 64.71 94.19 63.70 95.54 C 55.65 96.68 47.48 95.55 39.38 95.67 C 41.24 83.26 44.35 71.09 46.85 58.80 C 51.13 39.20 55.03 19.52 59.68 0.00 Z" />
<path fill="#3fad2f" opacity="1.00" d=" M 243.31 0.00 L 318.64 0.00 C 319.54 8.03 316.53 15.84 314.77 23.57 C 306.30 23.60 297.82 23.42 289.36 23.83 C 284.05 45.45 279.85 67.33 275.10 89.08 C 274.58 91.44 273.79 93.74 273.03 96.04 C 264.77 96.60 256.49 96.34 248.22 96.06 C 252.81 71.87 258.90 47.99 263.13 23.74 C 254.79 23.44 246.45 23.65 238.11 23.45 C 239.34 15.54 240.83 7.63 243.31 0.00 Z" />
<path fill="#3fad2f" opacity="1.00" d=" M 20.00 0.21 C 28.47 0.06 36.94 0.12 45.41 0.24 C 39.74 27.50 33.82 54.70 28.06 81.95 C 27.11 86.63 25.90 91.25 24.47 95.81 C 16.31 95.82 8.15 95.76 0.00 95.67 L 0.00 94.85 C 6.19 63.20 13.34 31.76 20.00 0.21 Z" />
<path fill="#3fad2f" opacity="1.00" d=" M 157.58 9.37 C 161.46 3.78 168.07 -0.11 174.98 0.11 C 193.94 0.20 212.90 -0.04 231.86 0.34 C 230.69 7.63 229.23 14.88 227.04 21.94 C 210.15 21.98 193.27 21.73 176.39 22.09 C 174.94 27.37 173.76 32.73 172.95 38.15 C 185.66 38.53 198.37 38.01 211.08 38.42 C 218.10 38.40 224.66 44.95 223.86 52.09 C 223.17 58.51 221.48 64.78 220.16 71.09 C 219.05 76.08 218.50 81.34 215.85 85.82 C 213.06 90.91 207.94 94.66 202.23 95.72 C 196.56 96.77 190.78 96.25 185.06 96.28 C 169.31 95.86 153.55 96.21 137.80 95.92 C 138.97 88.75 140.42 81.62 142.26 74.60 C 160.20 73.90 178.15 74.37 196.09 74.30 C 197.93 69.11 199.00 63.71 199.79 58.28 C 186.17 57.48 172.51 58.09 158.88 57.85 C 154.85 56.24 150.44 53.57 149.39 49.01 C 147.87 42.61 150.52 36.28 151.62 30.04 C 153.32 23.10 153.72 15.59 157.58 9.37 Z" />
<path fill="#3fad2f" opacity="1.00" d=" M 324.38 16.47 C 326.41 7.15 335.62 0.41 345.01 0.40 C 361.32 0.35 377.63 0.35 393.93 0.40 C 399.18 0.44 405.17 2.23 407.79 7.17 C 410.27 11.57 409.22 16.81 408.25 21.48 C 403.21 44.70 398.26 67.95 393.33 91.20 C 392.74 93.27 392.41 96.20 389.97 96.93 C 382.39 97.72 374.74 97.11 367.13 97.23 C 367.74 87.25 370.82 77.68 372.56 67.89 C 362.51 65.70 352.19 66.78 342.02 66.84 C 339.54 66.53 338.67 69.22 338.16 71.11 C 336.34 78.56 334.95 86.11 333.28 93.60 C 333.12 96.14 330.28 97.25 328.07 97.31 C 321.38 97.29 314.69 97.21 308.00 97.24 C 308.11 93.52 308.40 89.79 309.28 86.16 C 314.46 62.96 319.15 39.66 324.38 16.47 M 343.40 46.25 C 354.67 46.25 365.95 46.25 377.22 46.25 C 378.98 38.25 380.67 30.23 382.24 22.19 C 371.04 22.16 359.84 22.32 348.65 21.87 C 346.87 29.99 345.14 38.12 343.40 46.25 Z" />
<path fill="#3fad2f" opacity="1.00" d=" M 699.27 9.94 C 700.11 5.79 703.30 1.40 707.97 1.64 C 736.78 1.63 765.59 1.54 794.40 1.77 C 776.96 19.92 759.90 38.43 742.40 56.52 C 741.33 57.94 739.59 58.23 737.95 58.43 C 732.81 49.78 727.59 41.18 722.04 32.77 C 717.54 35.40 713.20 38.30 709.24 41.69 C 717.21 54.42 724.70 67.46 732.97 80.01 C 734.35 83.00 737.61 80.86 739.07 79.12 C 759.24 57.48 779.70 36.10 800.00 14.57 L 800.00 15.39 C 794.62 39.54 789.68 63.78 784.43 87.95 C 783.66 91.41 782.46 95.33 779.04 97.03 C 776.20 98.25 773.01 97.95 770.00 98.03 C 741.15 97.64 712.28 98.55 683.43 97.46 C 680.72 91.09 683.47 84.48 684.67 78.12 C 689.54 55.39 694.37 32.65 699.27 9.94 Z" />
</g>
<g id="#424243ff">
<path fill="#424243" opacity="1.00" d=" M 410.28 77.25 C 415.75 52.02 420.98 26.75 426.61 1.56 C 450.37 1.50 474.13 1.44 497.89 1.59 C 502.57 1.83 506.36 5.67 507.76 9.95 C 509.09 13.71 507.89 17.67 507.26 21.44 C 506.20 26.56 505.31 31.76 503.55 36.70 C 501.21 41.75 495.43 44.05 492.98 49.02 C 493.51 54.04 499.27 57.46 498.28 62.84 C 496.57 69.96 496.06 77.40 493.29 84.23 C 490.06 92.30 481.51 97.51 472.92 97.41 C 450.79 97.51 428.67 97.24 406.54 97.25 C 407.34 90.50 408.80 83.87 410.28 77.25 M 445.19 21.94 C 444.00 27.46 442.81 32.97 441.61 38.48 C 454.43 38.95 467.34 37.64 480.07 39.66 C 481.33 33.76 482.61 27.86 483.87 21.95 C 470.98 21.93 458.08 21.94 445.19 21.94 M 433.70 75.90 C 446.57 75.90 459.44 76.27 472.31 76.19 C 473.64 70.05 474.93 63.90 476.23 57.76 C 463.36 57.72 450.49 57.81 437.62 57.71 C 436.20 63.75 434.99 69.83 433.70 75.90 Z" />
<path fill="#424243" opacity="1.00" d=" M 523.60 11.67 C 526.95 5.92 533.18 1.57 539.98 1.59 C 560.57 1.74 581.16 1.40 601.75 1.89 C 600.43 9.18 599.10 16.51 596.81 23.58 C 579.73 23.57 562.66 23.56 545.58 23.50 C 544.33 28.86 543.17 34.23 542.07 39.62 C 556.70 39.80 571.32 39.93 585.95 40.01 C 585.37 46.01 584.08 51.91 582.72 57.77 C 581.24 58.59 579.77 59.65 577.99 59.44 C 564.72 59.42 551.43 59.57 538.20 58.30 C 536.92 63.74 535.72 69.19 534.51 74.64 C 551.51 75.02 568.52 74.67 585.53 74.89 C 585.10 82.55 583.15 89.99 581.27 97.39 C 561.19 97.73 541.10 97.20 521.02 97.44 C 515.23 97.54 508.96 93.90 507.69 87.97 C 506.82 82.98 508.32 78.01 509.31 73.16 C 512.91 56.42 516.52 39.68 520.12 22.94 C 520.96 19.10 521.52 15.08 523.60 11.67 Z" />
<path fill="#424243" opacity="1.00" d=" M 606.06 24.87 C 606.70 17.01 608.67 9.36 610.66 1.75 C 636.21 1.54 661.76 1.58 687.31 1.90 C 686.14 9.72 684.78 17.56 682.04 25.01 C 673.74 24.94 665.45 24.89 657.16 25.08 C 650.87 49.10 647.13 73.70 640.72 97.69 C 632.51 97.68 624.30 97.76 616.10 97.52 C 620.34 73.25 626.55 49.38 630.93 25.14 C 622.64 24.85 614.35 24.93 606.06 24.87 Z" />
</g>
</svg>
