<?xml version="1.0" encoding="UTF-8" standalone="no"?>
<!-- Created with Inkscape (http://www.inkscape.org/) -->

<svg
   version="1.1"
   id="svg2"
   width="324.46277"
   height="78.566513"
   viewBox="0 0 324.46277 78.566513"
   xmlns="http://www.w3.org/2000/svg"
   xmlns:svg="http://www.w3.org/2000/svg">
  <defs
     id="defs6" />
  <g
     id="g8"
     transform="translate(-1103.4622,-253.508)">
    <g
       id="g293"
       transform="matrix(0.23351029,0.00252056,0,0.2867534,1079.8042,234.91086)">
      <path
         style="fill:#cee7fe;stroke-width:0.999618"
         d="m 1111.3969,204.26717 -0.2457,-120.232828 -25.2307,-0.28513 -25.2308,-0.28513 25.2621,-0.232041 c 19.4633,-0.178776 25.3713,0.05489 25.7377,1.017959 0.2616,0.6875 0.358,55.025 0.2143,120.75 l -0.2612,119.5 z M 429.54431,314.25 c -1.24292,-1.58606 -1.20757,-1.62143 0.37727,-0.37756 1.66448,1.30637 2.19381,2.12756 1.3714,2.12756 -0.20749,0 -0.99439,-0.7875 -1.74867,-1.75 z m 157.00763,-2.62756 c 0,-0.20765 0.78689,-0.99515 1.74866,-1.75 1.58485,-1.24387 1.62019,-1.2085 0.37727,0.37756 -1.30537,1.66575 -2.12593,2.19548 -2.12593,1.37244 z m 116.91069,-6.93535 c 0,-0.1721 1.46138,-1.6346 3.24752,-3.25 l 3.24752,-2.93709 -2.93485,3.25 c -2.73569,3.02946 -3.56019,3.70965 -3.56019,2.93709 z M 891.63895,277 c 0,-3.575 0.18136,-5.0375 0.40302,-3.25 0.22165,1.7875 0.22165,4.7125 0,6.5 -0.22166,1.7875 -0.40302,0.325 -0.40302,-3.25 z m -691.91908,3.25 c -1.24292,-1.58606 -1.20757,-1.62143 0.37728,-0.37756 0.96176,0.75485 1.74866,1.54235 1.74866,1.75 0,0.82304 -0.82056,0.29331 -2.12594,-1.37244 z m 216.04148,0.16667 c 0.048,-1.16495 0.28472,-1.4019 0.6037,-0.60417 0.28865,0.72187 0.25316,1.58438 -0.0788,1.91667 -0.33204,0.33229 -0.56821,-0.25834 -0.52482,-1.3125 z m 568.20903,-3.45135 c 2.04755,-2.33743 2.24421,-3.69933 2.52695,-17.5 l 0.3066,-14.96532 0.22097,15.07569 0.22095,15.07568 -2.7479,2.42432 -2.7479,2.42431 z M 724.6414,268.5 c 0.0204,-1.65 0.24431,-2.20394 0.49766,-1.23097 0.25335,0.97297 0.23669,2.32297 -0.0371,3 -0.27372,0.67703 -0.481,-0.11903 -0.46064,-1.76903 z m -308.88005,-1.08333 c 0.048,-1.16495 0.28472,-1.4019 0.6037,-0.60417 0.28865,0.72187 0.25316,1.58438 -0.0788,1.91667 -0.33204,0.33229 -0.56821,-0.25834 -0.52482,-1.3125 z m 528.51732,-6.79423 c 0,-0.20765 0.7869,-0.99515 1.74866,-1.75 1.58485,-1.24387 1.6202,-1.2085 0.37728,0.37756 -1.30538,1.66575 -2.12594,2.19548 -2.12594,1.37244 z m -228.01332,-1.30555 c 0.72132,-0.28887 1.58317,-0.25335 1.91521,0.0789 0.33203,0.33229 -0.25815,0.56864 -1.3115,0.52522 -1.16406,-0.048 -1.40083,-0.28494 -0.60371,-0.60416 z M 1207.2727,242.5 c 0.02,-1.65 0.2443,-2.20394 0.4977,-1.23097 0.2533,0.97297 0.2367,2.32297 -0.037,3 -0.2737,0.67703 -0.4809,-0.11903 -0.4606,-1.76903 z m 0.037,-6.5 c 0,-1.925 0.2057,-2.7125 0.457,-1.75 0.2514,0.9625 0.2514,2.5375 0,3.5 -0.2513,0.9625 -0.457,0.175 -0.457,-1.75 z M 353.92459,216.5 c 0.0204,-1.65 0.24431,-2.20394 0.49766,-1.23097 0.25334,0.97297 0.23669,2.32297 -0.0371,3 -0.27372,0.67703 -0.48101,-0.11903 -0.46064,-1.76903 z m -17.18183,-2 c 1.29077,-1.375 2.57167,-2.5 2.84646,-2.5 0.27479,0 -0.55646,1.125 -1.84722,2.5 -1.29076,1.375 -2.57167,2.5 -2.84646,2.5 -0.27479,0 0.55646,-1.125 1.84722,-2.5 z M 1467.1293,194.31067 c 0.9617,-0.25152 2.5355,-0.25152 3.4973,0 0.9618,0.25153 0.1749,0.45733 -1.7487,0.45733 -1.9235,0 -2.7104,-0.2058 -1.7486,-0.45733 z m -504.05249,-3.99378 c 0.72132,-0.28887 1.58317,-0.25335 1.91521,0.0789 0.33203,0.33229 -0.25815,0.56864 -1.3115,0.52522 -1.16406,-0.048 -1.40083,-0.28494 -0.60371,-0.60416 z M 1232.5585,173 c 2.1465,-2.2 4.1277,-4 4.4025,-4 0.2748,0 -1.2567,1.8 -3.4033,4 -2.1466,2.2 -4.1278,4 -4.4025,4 -0.2748,0 1.2567,-1.8 3.4033,-4 z m -757.66909,-8.5 c 0.0111,-2.2 0.21573,-2.98225 0.45474,-1.73834 0.239,1.24391 0.22993,3.04391 -0.0202,4 -0.2501,0.95609 -0.44566,-0.0617 -0.43457,-2.26166 z m 963.01219,2.12244 c 0,-0.20765 0.7869,-0.99515 1.7487,-1.75 1.5848,-1.24387 1.6201,-1.2085 0.3773,0.37756 -1.3054,1.66575 -2.126,2.19548 -2.126,1.37244 z M 554.73413,164 c 0,-1.375 0.22681,-1.9375 0.50401,-1.25 0.27719,0.6875 0.27719,1.8125 0,2.5 -0.2772,0.6875 -0.50401,0.125 -0.50401,-1.25 z m -292.70229,-4 c 0,-1.925 0.20564,-2.7125 0.45698,-1.75 0.25132,0.9625 0.25132,2.5375 0,3.5 -0.25134,0.9625 -0.45698,0.175 -0.45698,-1.75 z m 254.07391,0 c 0.99473,-1.1 2.03343,-2 2.30822,-2 0.27479,0 -0.31425,0.9 -1.30898,2 -0.99473,1.1 -2.03343,2 -2.30822,2 -0.27479,0 0.31425,-0.9 1.30898,-2 z M 1149.372,83.252791 c 7.0071,-0.1719 18.4734,-0.1719 25.4805,0 7.0072,0.1719 1.2741,0.312545 -12.7402,0.312545 -14.0143,0 -19.7474,-0.140645 -12.7403,-0.312545 z"
         id="path307" />
      <path
         style="fill:#aed8fe;stroke-width:0.999618"
         d="m 1380.4235,239 c 0,-47.025 0.1221,-66.2625 0.2715,-42.75 0.1494,23.5125 0.1494,61.9875 0,85.5 -0.1494,23.5125 -0.2715,4.275 -0.2715,-42.75 z m -869.40887,76.75 -1.90354,-2.25 2.24828,1.90499 c 1.23656,1.04774 2.24829,2.06024 2.24829,2.25 0,0.80025 -0.80418,0.20945 -2.59303,-1.90499 z m -349.73284,-4 -1.90354,-2.25 2.24828,1.90499 c 2.11283,1.79022 2.70318,2.59501 1.90354,2.59501 -0.18962,0 -1.20134,-1.0125 -2.24828,-2.25 z M 1296.7594,289.33772 c 0.687,-0.27741 1.8111,-0.27741 2.4981,0 0.687,0.27741 0.1249,0.50439 -1.249,0.50439 -1.374,0 -1.9361,-0.22698 -1.2491,-0.50439 z m 5.0586,-0.0208 c 0.7214,-0.28887 1.5832,-0.25335 1.9153,0.0789 0.332,0.33229 -0.2582,0.56864 -1.3115,0.52522 -1.1641,-0.048 -1.4008,-0.28494 -0.6038,-0.60416 z m -646.50609,-1 c 0.72132,-0.28887 1.58317,-0.25335 1.91521,0.0789 0.33203,0.33229 -0.25815,0.56864 -1.3115,0.52522 -1.16406,-0.048 -1.40083,-0.28494 -0.60371,-0.60416 z M 268.95244,285 c 0,-1.375 0.22681,-1.9375 0.504,-1.25 0.2772,0.6875 0.2772,1.8125 0,2.5 -0.27719,0.6875 -0.504,0.125 -0.504,-1.25 z m 208.49534,-5.68311 c 0.72132,-0.28887 1.58317,-0.25335 1.91521,0.0789 0.33203,0.33229 -0.25815,0.56864 -1.3115,0.52522 -1.16406,-0.048 -1.40083,-0.28494 -0.60371,-0.60416 z M 415.84023,277 c 0,-1.375 0.22681,-1.9375 0.50401,-1.25 0.27719,0.6875 0.27719,1.8125 0,2.5 -0.2772,0.6875 -0.50401,0.125 -0.50401,-1.25 z m 0.0371,-5.5 c 0.0204,-1.65 0.24432,-2.20394 0.49766,-1.23097 0.25335,0.97297 0.23669,2.32297 -0.0371,3 -0.27372,0.67703 -0.481,-0.11903 -0.46064,-1.76903 z M 904.80882,242 c 0.99473,-1.1 2.03343,-2 2.30822,-2 0.27479,0 -0.31425,0.9 -1.30898,2 -0.99473,1.1 -2.03343,2 -2.30822,2 -0.27479,0 0.31425,-0.9 1.30898,-2 z M 138.97279,229.41667 c 0.048,-1.16495 0.28472,-1.4019 0.6037,-0.60417 0.28865,0.72187 0.25315,1.58437 -0.0788,1.91667 -0.33205,0.33229 -0.56821,-0.25834 -0.52482,-1.3125 z M 1443.3974,205 c 0.9947,-1.1 2.0334,-2 2.3082,-2 0.2748,0 -0.3142,0.9 -1.309,2 -0.9947,1.1 -2.0334,2 -2.3082,2 -0.2748,0 0.3143,-0.9 1.309,-2 z M 392.77891,202.41667 c 0.048,-1.16495 0.28472,-1.4019 0.6037,-0.60417 0.28865,0.72187 0.25315,1.58437 -0.0788,1.91667 -0.33204,0.33229 -0.56821,-0.25834 -0.52482,-1.3125 z M 392.85779,198 c 0,-1.375 0.2268,-1.9375 0.504,-1.25 0.2772,0.6875 0.2772,1.8125 0,2.5 -0.2772,0.6875 -0.504,0.125 -0.504,-1.25 z m -154.22758,0.31689 c 0.72132,-0.28887 1.58316,-0.25335 1.91521,0.0789 0.33203,0.33229 -0.25814,0.56864 -1.3115,0.52522 -1.16406,-0.048 -1.40083,-0.28494 -0.60371,-0.60416 z m 1049.19849,-10 c 0.7214,-0.28887 1.5832,-0.25335 1.9153,0.0789 0.332,0.33229 -0.2582,0.56864 -1.3115,0.52522 -1.1641,-0.048 -1.4009,-0.28494 -0.6038,-0.60416 z M 662.24411,149.33772 c 0.68698,-0.27741 1.81112,-0.27741 2.4981,0 0.68697,0.27741 0.1249,0.50439 -1.24905,0.50439 -1.37395,0 -1.93602,-0.22698 -1.24905,-0.50439 z"
         id="path305" />
      <path
         style="fill:#92cafe;stroke-width:0.999618"
         d="m 1136.6158,204 c 0,-66.275 0.1196,-93.3875 0.2656,-60.25 0.146,33.1375 0.146,87.3625 0,120.5 -0.146,33.1375 -0.2656,6.025 -0.2656,-60.25 z m -867.54898,87 c 0,-2.475 0.19487,-3.4875 0.43304,-2.25 0.23818,1.2375 0.23818,3.2625 0,4.5 -0.23817,1.2375 -0.43304,0.225 -0.43304,-2.25 z m 115.3895,-27.66228 c 0.68697,-0.27741 1.81111,-0.27741 2.49809,0 0.68697,0.27741 0.1249,0.50439 -1.24905,0.50439 -1.37395,0 -1.93602,-0.22698 -1.24904,-0.50439 z M 192.16308,252.5 c 0.006,-3.3 0.19215,-4.52944 0.41454,-2.73209 0.22239,1.79735 0.2178,4.49735 -0.0102,6 -0.22801,1.50265 -0.40996,0.0321 -0.40435,-3.26791 z m 173.43008,2.75 c -1.24292,-1.58606 -1.20757,-1.62143 0.37728,-0.37756 1.66448,1.30637 2.1938,2.12756 1.37139,2.12756 -0.20749,0 -0.99439,-0.7875 -1.74867,-1.75 z m 376.91859,-6.83333 c 0.048,-1.16495 0.28472,-1.4019 0.6037,-0.60417 0.28865,0.72187 0.25315,1.58437 -0.0788,1.91667 -0.33204,0.33229 -0.56821,-0.25834 -0.52482,-1.3125 z m 528.82945,-27.16509 c 8.6902,-0.16665 22.6295,-0.1663 30.9764,7.7e-4 8.3468,0.16708 1.2366,0.30343 -15.8004,0.30301 -17.037,-4.3e-4 -23.8661,-0.13713 -15.176,-0.30378 z m -856.65797,-4.62914 c 0,-0.20765 0.78689,-0.99515 1.74866,-1.75 1.58485,-1.24387 1.62019,-1.2085 0.37727,0.37756 -1.30537,1.66575 -2.12593,2.19548 -2.12593,1.37244 z m 876.14317,-28.30555 c 0.7214,-0.28887 1.5832,-0.25335 1.9153,0.0789 0.332,0.33229 -0.2582,0.56864 -1.3115,0.52522 -1.1641,-0.048 -1.4008,-0.28494 -0.6038,-0.60416 z M 767.41378,174.5 c 1.29076,-1.375 2.57166,-2.5 2.84645,-2.5 0.27479,0 -0.55645,1.125 -1.84722,2.5 -1.29076,1.375 -2.57166,2.5 -2.84645,2.5 -0.27479,0 0.55645,-1.125 1.84722,-2.5 z m -425.67483,-4.87756 c 0,-0.20765 0.7869,-0.99515 1.74866,-1.75 1.58485,-1.24387 1.62019,-1.2085 0.37727,0.37756 -1.30537,1.66575 -2.12593,2.19548 -2.12593,1.37244 z M 329.94291,164.5 c 0.0204,-1.65 0.24431,-2.20394 0.49766,-1.23097 0.25334,0.97297 0.23669,2.32297 -0.0371,3 -0.27372,0.67703 -0.48101,-0.11903 -0.46064,-1.76903 z M 666.7597,149.30701 c 0.97222,-0.25354 2.32119,-0.23687 2.99771,0.0371 0.67651,0.27393 -0.11894,0.48137 -1.76768,0.46099 -1.64874,-0.0204 -2.20226,-0.2445 -1.23003,-0.49804 z"
         id="path303" />
      <path
         style="fill:#6db9fe;stroke-width:0.999618"
         d="m 540.39969,327.31689 c 0.72132,-0.28887 1.58317,-0.25335 1.91521,0.0789 0.33203,0.33229 -0.25814,0.56864 -1.3115,0.52522 -1.16406,-0.048 -1.40083,-0.28494 -0.60371,-0.60416 z m 4.99618,0 c 0.72132,-0.28887 1.58318,-0.25335 1.91521,0.0789 0.33204,0.33229 -0.25814,0.56864 -1.3115,0.52522 -1.16406,-0.048 -1.40083,-0.28494 -0.60371,-0.60416 z m 90.93054,0 c 0.72132,-0.28887 1.58317,-0.25335 1.91521,0.0789 0.33204,0.33229 -0.25814,0.56864 -1.3115,0.52522 -1.16406,-0.048 -1.40083,-0.28494 -0.60371,-0.60416 z M 139.12572,247 c 0,-1.925 0.20565,-2.7125 0.45698,-1.75 0.25133,0.9625 0.25133,2.5375 0,3.5 -0.25133,0.9625 -0.45698,0.175 -0.45698,-1.75 z m 603.38603,-1.58333 c 0.048,-1.16495 0.28472,-1.4019 0.6037,-0.60417 0.28865,0.72187 0.25315,1.58437 -0.0788,1.91667 -0.33204,0.33229 -0.56821,-0.25834 -0.52482,-1.3125 z M 139.12572,236 c 0,-1.925 0.20565,-2.7125 0.45698,-1.75 0.25133,0.9625 0.25133,2.5375 0,3.5 -0.25133,0.9625 -0.45698,0.175 -0.45698,-1.75 z m 264.31609,-15.66228 c 0.68698,-0.27741 1.81112,-0.27741 2.49809,0 0.68698,0.27741 0.12491,0.50439 -1.24904,0.50439 -1.37395,0 -1.93602,-0.22698 -1.24905,-0.50439 z M 636.01415,204 c 0.99473,-1.1 2.03343,-2 2.30822,-2 0.27479,0 -0.31425,0.9 -1.30898,2 -0.99473,1.1 -2.03343,2 -2.30822,2 -0.27479,0 0.31425,-0.9 1.30898,-2 z M 338.74124,172.5 c 1.29076,-1.375 2.57166,-2.5 2.84645,-2.5 0.27479,0 -0.55645,1.125 -1.84722,2.5 -1.29076,1.375 -2.57166,2.5 -2.84645,2.5 -0.27479,0 0.55645,-1.125 1.84722,-2.5 z m 678.35416,-6.25 c -1.2428,-1.58606 -1.2075,-1.62143 0.3774,-0.37756 1.6644,1.30637 2.1938,2.12756 1.3713,2.12756 -0.2074,0 -0.9943,-0.7875 -1.7487,-1.75 z m -778.40529,-91 c -1.24292,-1.586056 -1.20758,-1.621426 0.37727,-0.377555 1.66448,1.306369 2.1938,2.127555 1.37139,2.127555 -0.20749,0 -0.99439,-0.7875 -1.74866,-1.75 z M 190.35459,73 c 0.99473,-1.1 2.03343,-2 2.30822,-2 0.27479,0 -0.31425,0.9 -1.30898,2 -0.99473,1.1 -2.03343,2 -2.30822,2 -0.27479,0 0.31425,-0.9 1.30898,-2 z"
         id="path301" />
      <path
         style="fill:#4fabfe;stroke-width:0.999618"
         d="m 205.6554,327.31689 c 0.72132,-0.28887 1.58316,-0.25335 1.91521,0.0789 0.33203,0.33229 -0.25815,0.56864 -1.3115,0.52522 -1.16406,-0.048 -1.40083,-0.28494 -0.60371,-0.60416 z m 435.60474,-0.0403 c 1.78614,-0.22182 4.70891,-0.22182 6.49504,0 1.78614,0.22183 0.32475,0.40333 -3.24752,0.40333 -3.57227,0 -5.03365,-0.1815 -3.24752,-0.40333 z m -338.49142,-2.65416 c 0,-0.20765 0.7869,-0.99515 1.74866,-1.75 1.58485,-1.24387 1.62019,-1.2085 0.37727,0.37756 -1.30537,1.66575 -2.12593,2.19548 -2.12593,1.37244 z M 1231.9313,304.25 c -1.2428,-1.58606 -1.2075,-1.62143 0.3773,-0.37756 1.6645,1.30637 2.1939,2.12756 1.3714,2.12756 -0.2074,0 -0.9943,-0.7875 -1.7487,-1.75 z M 830.63451,287.30701 c 0.97223,-0.25354 2.3212,-0.23687 2.99771,0.0371 0.67652,0.27393 -0.11894,0.48137 -1.76768,0.46099 -1.64874,-0.0204 -2.20226,-0.2445 -1.23003,-0.49804 z M 461.87917,261 c 0,-1.925 0.20565,-2.7125 0.45698,-1.75 0.25133,0.9625 0.25133,2.5375 0,3.5 -0.25133,0.9625 -0.45698,0.175 -0.45698,-1.75 z m 820.46113,-8.74938 c 14.1901,-0.15657 37.1226,-0.15643 50.9611,3.1e-4 13.8385,0.15675 2.2284,0.28484 -25.8002,0.28467 -28.0286,-1.7e-4 -39.3509,-0.12842 -25.1609,-0.28498 z M 191.93233,243.41667 c 0.048,-1.16495 0.28473,-1.4019 0.6037,-0.60417 0.28865,0.72187 0.25316,1.58437 -0.0788,1.91667 -0.33204,0.33229 -0.5682,-0.25834 -0.52482,-1.3125 z M 139.0887,241.5 c 0.0204,-1.65 0.24431,-2.20394 0.49766,-1.23097 0.25335,0.97297 0.23669,2.32297 -0.0371,3 -0.27372,0.67703 -0.481,-0.11903 -0.46064,-1.76903 z m 603.42305,0.91667 c 0.048,-1.16495 0.28472,-1.4019 0.6037,-0.60417 0.28865,0.72187 0.25315,1.58437 -0.0788,1.91667 -0.33204,0.33229 -0.56821,-0.25834 -0.52482,-1.3125 z M 742.59063,234 c 0,-1.375 0.22681,-1.9375 0.504,-1.25 0.2772,0.6875 0.2772,1.8125 0,2.5 -0.27719,0.6875 -0.504,0.125 -0.504,-1.25 z m -71.60319,-18 c 0.99473,-1.1 2.03342,-2 2.30821,-2 0.27479,0 -0.31425,0.9 -1.30898,2 -0.99473,1.1 -2.03342,2 -2.30821,2 -0.27479,0 0.31425,-0.9 1.30898,-2 z m 135.89619,-15 c 0.99473,-1.1 2.03342,-2 2.30821,-2 0.27479,0 -0.31425,0.9 -1.30898,2 -0.99473,1.1 -2.03342,2 -2.30821,2 -0.2748,0 0.31425,-0.9 1.30898,-2 z M 244.89188,87.416667 c 0.048,-1.164943 0.28472,-1.4019 0.6037,-0.604167 0.28865,0.721875 0.25315,1.584375 -0.0788,1.916667 -0.33205,0.332291 -0.56821,-0.258334 -0.52482,-1.3125 z"
         id="path299" />
      <path
         style="fill:#2a99fe;stroke-width:0.999618"
         d="m 200.09715,327.31067 c 0.96176,-0.25152 2.53556,-0.25152 3.49733,0 0.96176,0.25153 0.17486,0.45733 -1.74867,0.45733 -1.92353,0 -2.71043,-0.2058 -1.74866,-0.45733 z m 261.80001,0 c 0.96176,-0.25152 2.53556,-0.25152 3.49733,0 0.96176,0.25153 0.17486,0.45733 -1.74867,0.45733 -1.92353,0 -2.71043,-0.2058 -1.74866,-0.45733 z m 356.22788,0.027 c 0.68697,-0.27741 1.81111,-0.27741 2.49809,0 0.68697,0.27741 0.1249,0.50439 -1.24905,0.50439 -1.37395,0 -1.93602,-0.22698 -1.24904,-0.50439 z m 14.05176,-0.0208 c 0.72132,-0.28887 1.58317,-0.25335 1.91521,0.0789 0.33204,0.33229 -0.25814,0.56864 -1.3115,0.52522 -1.16406,-0.048 -1.40083,-0.28494 -0.60371,-0.60416 z M 1186.5777,204 c 0,-66.275 0.1195,-93.3875 0.2656,-60.25 0.146,33.1375 0.146,87.3625 0,120.5 -0.1461,33.1375 -0.2656,6.025 -0.2656,-60.25 z m -756.98156,109.25 -2.42246,-2.75 2.7479,2.42431 c 2.56833,2.26589 3.20615,3.07569 2.42246,3.07569 -0.17898,0 -1.41553,-1.2375 -2.7479,-2.75 z m 156.9558,-2.75 c 1.29076,-1.375 2.57166,-2.5 2.84645,-2.5 0.27479,0 -0.55645,1.125 -1.84722,2.5 -1.29076,1.375 -2.57166,2.5 -2.84645,2.5 -0.27479,0 0.55645,-1.125 1.84722,-2.5 z m 7.86643,0.75 c -1.24292,-1.58606 -1.20758,-1.62143 0.37727,-0.37756 0.96176,0.75485 1.74866,1.54235 1.74866,1.75 0,0.82304 -0.82056,0.29331 -2.12593,-1.37244 z M 248.31032,308 c 0.99473,-1.1 2.03342,-2 2.30821,-2 0.27479,0 -0.31425,0.9 -1.30898,2 -0.99473,1.1 -2.03342,2 -2.30821,2 -0.27479,0 0.31425,-0.9 1.30898,-2 z m 454.65269,-4 c 0.99473,-1.1 2.03343,-2 2.30822,-2 0.27479,0 -0.31425,0.9 -1.30898,2 -0.99473,1.1 -2.03343,2 -2.30822,2 -0.27479,0 0.31425,-0.9 1.30898,-2 z m 63.32407,0.25 c -1.24292,-1.58606 -1.20758,-1.62143 0.37727,-0.37756 0.96176,0.75485 1.74866,1.54235 1.74866,1.75 0,0.82304 -0.82056,0.29331 -2.12593,-1.37244 z M 707.95919,299 c 0.99473,-1.1 2.03343,-2 2.30822,-2 0.27479,0 -0.31425,0.9 -1.30898,2 -0.99473,1.1 -2.03343,2 -2.30822,2 -0.27479,0 0.31425,-0.9 1.30898,-2 z m 235.19278,-14.75 c -1.24292,-1.58606 -1.20758,-1.62143 0.37727,-0.37756 0.96177,0.75485 1.74867,1.54235 1.74867,1.75 0,0.82304 -0.82057,0.29331 -2.12594,-1.37244 z m -743.4321,-3 c -1.24292,-1.58606 -1.20757,-1.62143 0.37728,-0.37756 1.66448,1.30637 2.1938,2.12756 1.37139,2.12756 -0.20749,0 -0.99439,-0.7875 -1.74867,-1.75 z m 1068.23583,-3 -2.4224,-2.75 2.7479,2.42431 c 1.5113,1.33338 2.7479,2.57088 2.7479,2.75 0,0.78428 -0.8092,0.14598 -3.0734,-2.42431 z M 984.74776,277 c 0.99473,-1.1 2.03342,-2 2.30821,-2 0.27479,0 -0.31425,0.9 -1.30898,2 -0.99473,1.1 -2.03342,2 -2.30821,2 -0.27479,0 0.31425,-0.9 1.30898,-2 z M 539.81963,267 c 0,-1.925 0.20565,-2.7125 0.45699,-1.75 0.25132,0.9625 0.25132,2.5375 0,3.5 -0.25134,0.9625 -0.45699,0.175 -0.45699,-1.75 z m 253.80612,-28 c 0,-1.925 0.20565,-2.7125 0.45698,-1.75 0.25133,0.9625 0.25133,2.5375 0,3.5 -0.25133,0.9625 -0.45698,0.175 -0.45698,-1.75 z m -50.99809,-0.5 c 0.0204,-1.65 0.24431,-2.20394 0.49766,-1.23097 0.25335,0.97297 0.23669,2.32297 -0.0371,3 -0.27372,0.67703 -0.481,-0.11903 -0.46064,-1.76903 z m 616.41304,-2.08333 c 0.048,-1.16495 0.2848,-1.4019 0.6038,-0.60417 0.2887,0.72187 0.2532,1.58437 -0.079,1.91667 -0.332,0.33229 -0.5682,-0.25834 -0.5249,-1.3125 z M 701.46415,233.5 c 1.29077,-1.375 2.57167,-2.5 2.84646,-2.5 0.27479,0 -0.55645,1.125 -1.84722,2.5 -1.29076,1.375 -2.57166,2.5 -2.84645,2.5 -0.27479,0 0.55645,-1.125 1.84721,-2.5 z m -77.86157,-0.0833 c 0.048,-1.16495 0.28473,-1.4019 0.6037,-0.60417 0.28865,0.72187 0.25316,1.58437 -0.0788,1.91667 -0.33203,0.33229 -0.5682,-0.25834 -0.52482,-1.3125 z M 1359.1197,226 c 0,-1.375 0.2268,-1.9375 0.504,-1.25 0.2772,0.6875 0.2772,1.8125 0,2.5 -0.2772,0.6875 -0.504,0.125 -0.504,-1.25 z M 139.97203,222.41667 c 0.048,-1.16495 0.28472,-1.4019 0.60369,-0.60417 0.28865,0.72187 0.25316,1.58437 -0.0788,1.91667 -0.33205,0.33229 -0.56821,-0.25834 -0.52482,-1.3125 z M 1317.1517,220 c 0,-1.375 0.2269,-1.9375 0.504,-1.25 0.2772,0.6875 0.2772,1.8125 0,2.5 -0.2771,0.6875 -0.504,0.125 -0.504,-1.25 z m -982.40741,-4.37756 c 0,-0.20765 0.7869,-0.99515 1.74866,-1.75 1.58485,-1.24387 1.6202,-1.2085 0.37728,0.37756 -1.30538,1.66575 -2.12594,2.19548 -2.12594,1.37244 z M 717.60971,198 c 0,-1.375 0.22681,-1.9375 0.50401,-1.25 0.27719,0.6875 0.27719,1.8125 0,2.5 -0.2772,0.6875 -0.50401,0.125 -0.50401,-1.25 z m -515.95126,-3.68311 c 0.72132,-0.28887 1.58316,-0.25335 1.91521,0.0789 0.33204,0.33229 -0.25814,0.56864 -1.3115,0.52522 -1.16406,-0.048 -1.40083,-0.28494 -0.60371,-0.60416 z m 515.87238,-0.90022 c 0.048,-1.16495 0.28472,-1.4019 0.6037,-0.60417 0.28865,0.72187 0.25316,1.58437 -0.0788,1.91667 -0.33204,0.33229 -0.56821,-0.25834 -0.52482,-1.3125 z m -464.72395,0.20577 c 0,-0.20765 0.7869,-0.99515 1.74867,-1.75 1.58485,-1.24387 1.62019,-1.2085 0.37727,0.37756 -1.30537,1.66575 -2.12594,2.19548 -2.12594,1.37244 z m 413.49663,-2.30555 c 0.72132,-0.28887 1.58317,-0.25335 1.91521,0.0789 0.33204,0.33229 -0.25814,0.56864 -1.3115,0.52522 -1.16406,-0.048 -1.40083,-0.28494 -0.60371,-0.60416 z m 163.81237,-0.97917 c 0.68697,-0.27741 1.81111,-0.27741 2.49809,0 0.68698,0.27741 0.1249,0.50439 -1.24905,0.50439 -1.37395,0 -1.93602,-0.22698 -1.24904,-0.50439 z m 5.05863,-0.0208 c 0.72132,-0.28887 1.58317,-0.25335 1.91521,0.0789 0.33204,0.33229 -0.25814,0.56864 -1.3115,0.52522 -1.16406,-0.048 -1.40083,-0.28494 -0.60371,-0.60416 z M 394.93031,171 c 0,-1.925 0.20565,-2.7125 0.45699,-1.75 0.25132,0.9625 0.25132,2.5375 0,3.5 -0.25134,0.9625 -0.45699,0.175 -0.45699,-1.75 z m 215.10369,1 c 0.99473,-1.1 2.03342,-2 2.30821,-2 0.27479,0 -0.31425,0.9 -1.30898,2 -0.99473,1.1 -2.03342,2 -2.30821,2 -0.27479,0 0.31425,-0.9 1.30898,-2 z m 626.0218,-1.37756 c 0,-0.20765 0.7869,-0.99515 1.7486,-1.75 1.5849,-1.24387 1.6202,-1.2085 0.3774,0.37756 -1.3054,1.66575 -2.126,2.19548 -2.126,1.37244 z M 877.73449,167.75 l -1.90353,-2.25 2.24828,1.90499 c 2.11283,1.79022 2.70317,2.59501 1.90354,2.59501 -0.18962,0 -1.20135,-1.0125 -2.24829,-2.25 z m -770.94363,-0.5 c -1.24292,-1.58606 -1.20757,-1.62143 0.37727,-0.37756 0.96177,0.75485 1.74867,1.54235 1.74867,1.75 0,0.82304 -0.82056,0.29331 -2.12594,-1.37244 z m 1330.11154,1.43709 c 0,-0.1721 1.4613,-1.6346 3.2475,-3.25 l 3.2475,-2.93709 -2.9349,3.25 c -2.7357,3.02946 -3.5601,3.70965 -3.5601,2.93709 z M 435.6672,161.62244 c 0,-0.20765 0.78689,-0.99515 1.74866,-1.75 1.58485,-1.24387 1.62019,-1.2085 0.37727,0.37756 -1.30537,1.66575 -2.12593,2.19548 -2.12593,1.37244 z m -312.45697,-11.3692 c 5.93785,-0.17711 15.38064,-0.17644 20.98397,0.001 5.60333,0.17792 0.74508,0.32282 -10.7961,0.322 -11.54119,-8.2e-4 -16.12572,-0.14638 -10.18787,-0.32348 z m 101.81729,0.003 c 4.78103,-0.18291 12.87485,-0.18377 17.98626,-0.002 5.11142,0.18186 1.19967,0.33151 -8.69278,0.33256 -9.89244,10e-4 -14.07451,-0.14774 -9.29348,-0.33065 z m 90.98108,0.0545 c 0.96177,-0.25152 2.53557,-0.25152 3.49733,0 0.96177,0.25153 0.17487,0.45733 -1.74866,0.45733 -1.92353,0 -2.71043,-0.2058 -1.74867,-0.45733 z m 62.97093,-0.004 c 0.97223,-0.25354 2.3212,-0.23687 2.99771,0.0371 0.67651,0.27393 -0.11894,0.48137 -1.76768,0.46099 -1.64874,-0.0204 -2.20226,-0.2445 -1.23003,-0.49804 z m 82.93664,0 c 0.97223,-0.25354 2.3212,-0.23687 2.99771,0.0371 0.67652,0.27393 -0.11893,0.48137 -1.76768,0.46099 -1.64874,-0.0204 -2.20225,-0.2445 -1.23003,-0.49804 z m 78.92069,0.004 c 0.96176,-0.25152 2.53556,-0.25152 3.49733,0 0.96176,0.25153 0.17486,0.45733 -1.74867,0.45733 -1.92353,0 -2.71043,-0.2058 -1.74866,-0.45733 z m 283.2836,0.0271 c 0.68697,-0.27741 1.81111,-0.27741 2.49809,0 0.68697,0.27741 0.1249,0.50439 -1.24905,0.50439 -1.37395,0 -1.93602,-0.22698 -1.24904,-0.50439 z m 11.05405,-0.0208 c 0.72132,-0.28887 1.58317,-0.25335 1.91521,0.0789 0.33204,0.33229 -0.25814,0.56864 -1.3115,0.52522 -1.16406,-0.048 -1.40083,-0.28494 -0.60371,-0.60416 z m 140.89238,0 c 0.72132,-0.28887 1.58317,-0.25335 1.9152,0.0789 0.33204,0.33229 -0.25814,0.56864 -1.31149,0.52522 -1.16407,-0.048 -1.40083,-0.28494 -0.60371,-0.60416 z"
         id="path297" />
      <path
         style="fill:#0085fd;stroke-width:0.999618"
         d="M 815.28285,327.02067 C 784.38503,323.15087 761.22376,305.66662 750.08529,277.80355 744.88467,264.7941 743.9764,258.98241 744.02096,239 c 0.0385,-17.25317 0.22566,-19.10324 2.77762,-27.45066 7.1913,-23.52258 20.87939,-40.29292 41.59917,-50.96637 29.05397,-14.96667 66.42192,-12.85453 86.57579,4.8935 3.78501,3.33319 4.58908,4.54926 3.72705,5.63681 -0.60453,0.7627 -5.66694,7.58941 -11.24977,15.17048 l -10.15063,13.78376 -3.28008,-2.50376 c -14.05738,-10.73027 -34.01938,-9.22744 -46.80367,3.52361 -8.90256,8.87943 -13.05681,20.94198 -13.05681,37.91263 0,22.29025 7.8684,37.7594 22.99776,45.21325 5.89909,2.90633 7.5989,3.282 14.68614,3.24572 9.58587,-0.0491 15.96713,-2.0166 24.55361,-7.57055 3.3951,-2.19603 6.28274,-3.85681 6.41699,-3.69061 0.13425,0.16621 3.08519,4.80219 6.55766,10.30219 3.47246,5.5 7.80722,12.34011 9.63279,15.20025 l 3.31923,5.20026 -6.40374,4.5731 c -17.13767,12.23853 -40.08242,18.12144 -60.63722,15.54706 z m 115.06526,-0.51133 c -9.61029,-2.18257 -16.83126,-6.1501 -23.55195,-12.94049 -9.62765,-9.7275 -14.4778,-21.97828 -14.4778,-36.56885 0,-33.79188 25.49189,-52.38251 82.93665,-60.48372 5.77059,-0.8138 10.89035,-1.48788 11.37723,-1.49796 1.38814,-0.0287 -0.14215,-8.62365 -2.27392,-12.77152 C 979.88813,193.54892 972.81761,190 959.95906,190 c -10.61976,0 -21.19877,2.92647 -34.2536,9.47557 l -10.36017,5.1973 -8.50311,-15.95239 c -4.67672,-8.77381 -8.29423,-16.29065 -8.0389,-16.70408 0.81159,-1.3142 22.70638,-11.74821 30.25335,-14.4173 19.984,-7.06764 46.23384,-9.05223 62.49987,-4.72524 22.9158,6.09592 37.1348,21.79361 42.8886,47.34887 1.9555,8.68541 2.1149,12.92966 2.4979,66.52727 l 0.4092,57.25 h -20.3659 -20.36587 l -1.82567,-9 c -1.00411,-4.95 -2.05143,-9 -2.32737,-9 -0.27594,0 -3.69955,2.41812 -7.608,5.3736 -9.50045,7.184 -14.62821,10.00364 -23.72549,13.04612 -9.7415,3.25794 -21.98287,4.08883 -30.78579,2.08962 z m 41.40957,-39.88576 c 2.7479,-1.29628 7.35688,-4.25516 10.24217,-6.57529 l 5.246,-4.21842 v -15.55262 -15.55261 l -5.2632,0.61906 c -14.46037,1.70083 -30.67182,7.77261 -36.60435,13.70967 -9.00497,9.01186 -8.05834,22.56894 1.93393,27.69663 6.25707,3.21091 17.49406,3.1528 24.44545,-0.12642 z m 308.76412,40.24835 c -9.2408,-1.1561 -19.3812,-4.26024 -27.9765,-8.56418 -22.0446,-11.03831 -35.9103,-29.75313 -42.0887,-56.80775 -2.4072,-10.54098 -2.4401,-33.80322 -0.063,-44.24252 7.5345,-33.0826 30.3157,-57.57483 60.4052,-64.94209 9.6919,-2.373 27.4278,-2.10675 37.5019,0.56298 23.612,6.2574 39.6563,22.79282 47.1175,48.55965 3.29,11.36186 4.7024,27.28389 3.5125,39.59844 -0.5028,5.20495 -0.9265,9.80104 -0.9414,10.21354 -0.015,0.4125 -23.0096,0.75 -51.0993,0.75 h -51.0723 l 0.6711,3.75 c 0.8728,4.87712 5.6812,15.24689 9.2387,19.92395 12.396,16.29706 43.8809,18.99192 66.9313,5.72879 l 4.174,-2.4017 8.058,14.65732 c 6.0573,11.01778 7.7905,14.98011 6.9801,15.95727 -2.0253,2.44225 -21.3723,11.31475 -30.1386,13.82154 -14.8008,4.23239 -26.8248,5.23455 -41.2109,3.43476 z M 1317.9734,221.25 c -0.011,-0.4125 -0.4615,-3.80735 -1.0014,-7.54411 -1.5962,-11.04772 -6.4001,-18.69855 -14.467,-23.0403 -3.2399,-1.74382 -5.7001,-2.15261 -12.9901,-2.15842 -7.8278,-0.006 -9.7287,0.35437 -14.6703,2.78292 -3.1226,1.53454 -7.1233,4.43823 -8.8907,6.45263 -3.9539,4.50676 -8.6106,14.31063 -9.503,20.00728 l -0.6658,4.25 h 31.1041 c 17.1072,0 31.0951,-0.3375 31.0842,-0.75 z M 186.1085,325.5033 c -19.18216,-5.34643 -34.14358,-21.34211 -41.15807,-44.0033 -6.3647,-20.56197 -6.75329,-53.38768 -1.01161,-85.45555 1.02962,-5.75055 1.7771,-10.51327 1.66108,-10.58382 -0.11603,-0.0705 -4.45764,-1.59142 -9.64802,-3.37971 -17.10734,-5.89416 -28.94116,-13.0773 -31.15822,-18.91308 -0.60784,-1.59996 -0.54765,-3.62449 0.17267,-5.80878 2.0185,-6.12079 3.03142,-6.35906 27.0329,-6.35906 16.14754,0 21.87505,-0.3172 22.57061,-1.25 0.51265,-0.6875 2.42542,-5.75 4.2506,-11.25 11.9989,-36.15754 24.62282,-59.86005 36.85367,-69.195953 5.56465,-4.247545 14.00383,-6.735149 20.04002,-5.907166 9.84195,1.35002 23.89759,10.437972 27.78795,17.966853 2.52453,4.885626 1.23827,11.540325 -4.34412,22.475236 -2.71264,5.31357 -8.60807,16.86103 -13.10095,25.66103 -4.49289,8.8 -8.45474,17.2375 -8.8041,18.75 l -0.6352,2.75 h 20.13848 c 20.04928,0 20.14934,0.0109 22.59115,2.45455 2.99899,3.00129 3.01643,4.2601 0.29679,21.43264 -2.07638,13.11087 -2.28957,13.74754 -5.78183,17.26671 -5.78945,5.83407 -9.42797,6.35602 -30.5329,4.38002 -9.89244,-0.9262 -18.94998,-1.91196 -20.12787,-2.19058 -1.9801,-0.46837 -2.33462,0.31036 -4.70057,10.32504 -4.85024,20.53023 -5.9716,29.1039 -6.06165,46.34593 l -0.0862,16.51431 3.29236,6.69954 c 3.62606,7.3786 6.80906,10.22457 12.98972,11.61434 9.61893,2.16288 19.5018,-2.10345 30.81024,-13.30046 18.57051,-18.38751 36.36408,-54.81015 44.45527,-90.99798 3.22989,-14.4457 5.47063,-18.72456 12.69234,-24.23694 C 301.95278,153.21595 309.29281,151 317.48445,151 c 5.37138,0 6.72975,0.37095 8.74553,2.38827 3.32248,3.32501 4.03451,8.55243 2.67135,19.61173 -0.64403,5.225 -1.16663,10.06917 -1.16133,10.76483 0.005,0.69565 4.84345,-3.63547 10.75144,-9.6247 15.99739,-16.21741 28.32257,-23.14504 41.16272,-23.13639 7.41095,0.005 11.2746,2.40633 13.57635,8.43796 1.52538,3.99719 1.64836,6.23826 0.9239,16.83466 -1.32595,19.39411 -1.15248,34.75457 0.43502,38.5208 2.52191,5.98297 9.1805,7.71315 16.63782,4.32318 9.39401,-4.27037 14.33546,-14.48098 17.48052,-36.12034 1.77614,-12.22058 4.19839,-18.04184 9.56871,-22.9958 6.43551,-5.93657 12.28266,-8.27012 22.05659,-8.80259 7.87657,-0.42911 8.27135,-0.34525 10.69485,2.27175 1.45264,1.56862 2.78301,4.49656 3.14709,6.92627 0.42179,2.81486 -1.58878,20.15416 -6.07017,52.34973 -7.13076,51.22924 -7.2859,54.21508 -3.13979,60.42738 4.46096,6.68406 14.08794,8.73524 22.30782,4.75302 5.58388,-2.70517 8.95059,-9.35844 10.33793,-20.42976 1.05755,-8.43946 7.90474,-54.96008 10.97823,-74.58737 0.99798,-6.37305 2.7429,-13.40856 3.87759,-15.63445 5.04364,-9.89389 14.73663,-15.51523 27.77213,-16.10611 9.49001,-0.43016 11.42828,0.72895 13.38603,8.005 1.01594,3.7758 0.24889,10.4491 -6.48209,56.3941 -6.69991,45.73286 -7.50263,52.69991 -6.55797,56.91841 2.10497,9.39995 7.11889,13.51042 16.47993,13.51042 10.13348,0 17.0807,-5.73197 19.39219,-16 0.55716,-2.475 1.52133,-9.9 2.14258,-16.5 4.45349,-47.31165 22.7255,-81.13567 51.33101,-95.02079 11.16329,-5.41866 18.96084,-7.36203 32.5635,-8.11572 17.7776,-0.98502 30.54905,3.3596 41.5557,14.13651 9.66005,9.45843 13.59793,18.90502 13.50368,32.39398 -0.10219,14.62557 -4.83406,25.14655 -16.4638,36.60602 -6.39196,6.29838 -10.24426,9.09477 -18.11122,13.14695 -15.22543,7.84245 -31.90545,13.06902 -52.21012,16.35968 -6.1031,0.9891 -7.24447,1.48 -7.24447,3.11584 0,6.30803 8.15649,16.34743 16.26053,20.01426 4.39019,1.98642 6.81644,2.35929 15.21543,2.33834 17.23406,-0.043 30.92237,-6.00038 54.35761,-23.6574 3.51683,-2.64972 7.24694,-4.81767 8.28912,-4.81767 3.18305,0 6.80022,4.47718 6.80022,8.41703 0,15.50256 -21.40349,40.29945 -44.0551,51.03979 C 668.64579,325.02608 659.2368,327 644.43573,327 c -22.43621,0 -37.36605,-4.6535 -48.38256,-15.08041 l -5.45623,-5.16422 -5.34757,4.8911 C 574.61652,321.37172 559.54466,327 544.13448,327 c -13.51154,0 -23.83966,-3.56774 -31.53449,-10.89325 l -4.09478,-3.89824 -7.69095,4.33802 c -4.23003,2.38591 -11.28821,5.59904 -15.68485,7.14029 -7.17151,2.51398 -9.33026,2.80283 -20.98397,2.80772 -12.55931,0.005 -13.21498,-0.10115 -19.77249,-3.2096 -3.95806,-1.87622 -9.21418,-5.53632 -12.62199,-8.78931 -11.57499,-11.0491 -15.83427,-24.39215 -14.68242,-45.99563 0.35189,-6.6 0.93066,-14.00941 1.28615,-16.46535 l 0.64635,-4.46535 -4.4072,3.78051 c -11.03103,9.4625 -25.76447,13.5731 -36.96742,10.31383 C 363.79226,257.63886 356.498,244.52978 355.04908,221.08813 354.38247,210.30317 352.99569,207 349.13443,207 c -4.81934,0 -14.03186,7.30356 -18.85278,14.94622 -3.58159,5.67795 -9.91138,22.03184 -12.40643,32.05378 -1.16388,4.675 -4.06289,21.22726 -6.44222,36.7828 -4.55746,29.79555 -5.27695,32.13293 -10.75908,34.95246 -3.62598,1.86489 -11.44302,1.5359 -15.74962,-0.66284 -5.39867,-2.7563 -10.58818,-8.94461 -12.73522,-15.1863 -1.44763,-4.20841 -1.85742,-8.39187 -1.87414,-19.13261 -0.0118,-7.56057 -0.26499,-13.74807 -0.56268,-13.75 -0.29771,-0.002 -1.80839,2.58207 -3.35709,5.74222 -9.64053,19.67168 -25.4148,34.81022 -42.75921,41.03593 -6.1348,2.20206 -9.29666,2.6657 -19.79168,2.90218 -8.67354,0.19543 -14.09335,-0.16532 -17.73578,-1.18054 z m 451.36266,-93.03956 c 12.00552,-2.91078 26.63071,-9.55007 32.67901,-14.83505 7.59696,-6.6382 10.84327,-18.11504 6.38578,-22.57594 -3.25222,-3.2547 -9.39676,-4.37104 -16.88036,-3.06684 -19.81601,3.45345 -32.44741,17.22906 -35.54433,38.76409 -0.74693,5.19393 -0.90861,5.17319 13.3599,1.71374 z M 1061.1894,204 V 84 h 24.9809 24.9809 v 120 120 h -24.9809 -24.9809 z m 75.942,0 V 84 h 24.4812 24.4813 v 120 120 h -24.4813 -24.4812 z m 243.8137,35 v -85 h 19.9174 c 18.1138,0 19.9623,0.15847 20.4136,1.75 0.2729,0.9625 0.9964,6.7 1.6079,12.75 1.3146,13.00665 1.7821,15.5 2.9066,15.5 0.4626,0 2.6863,-2.85531 4.9415,-6.34514 8.9713,-13.88287 23.2817,-24.16909 37.0788,-26.65221 9.1904,-1.65401 26.0152,0.54404 26.0681,3.40564 0.011,0.60044 -1.666,10.22629 -3.7269,21.39079 l -3.7472,20.29907 -4.0171,-0.79907 c -2.2094,-0.4395 -8.2889,-0.79908 -13.5099,-0.79908 -8.3316,0 -10.1767,0.33615 -15.0845,2.74826 -7.0483,3.46404 -15.6984,12.44422 -19.7786,20.53347 l -3.1079,6.16124 V 273.97148 324 h -24.9809 -24.9809 z"
         id="path295" />
    </g>
  </g>
</svg>
